<?xml version="1.0" standalone="no"?>
<!DOCTYPE svg PUBLIC "-//W3C//DTD SVG 20010904//EN"
 "http://www.w3.org/TR/2001/REC-SVG-20010904/DTD/svg10.dtd">
<svg version="1.0" xmlns="http://www.w3.org/2000/svg"
 width="296.000000pt" height="296.000000pt" viewBox="0 0 296.000000 296.000000"
 preserveAspectRatio="xMidYMid meet">
<metadata>
Created by potrace 1.11, written by Peter Selinger 2001-2013
</metadata>
<g transform="translate(0.000000,296.000000) scale(0.100000,-0.100000)"
fill="#000000" stroke="none">
<path d="M930 2680 c-1 -8 -2 -18 -1 -22 0 -5 -32 -9 -71 -10 -70 -2 -71 -2
-16 -5 55 -4 58 -5 56 -30 l-3 -25 -120 6 c-66 3 -146 6 -178 6 -50 0 -60 3
-64 19 -7 27 -130 35 -144 9 -6 -10 -5 -19 1 -23 23 -14 7 -25 -35 -25 l-45 0
0 -44 c0 -48 -9 -56 -66 -56 -36 0 -38 4 -34 65 1 17 9 39 18 50 17 20 17 20
-4 2 -12 -10 -31 -19 -43 -20 -11 -1 -21 -5 -21 -10 0 -5 -7 -4 -15 3 -8 7
-16 10 -16 6 -1 -3 -2 -10 -3 -15 -3 -21 -16 -23 -16 -3 0 20 -5 22 -55 22
-42 0 -55 -3 -55 -15 0 -8 7 -15 15 -15 8 0 15 -4 15 -10 0 -16 100 -12 106 4
6 17 39 14 38 -2 -1 -7 -2 -21 -2 -32 -2 -23 -32 -28 -32 -6 0 9 -9 14 -20 13
-11 -1 -20 -8 -20 -15 0 -11 -11 -13 -50 -10 l-50 5 0 -693 0 -694 35 0 c24 0
35 -5 35 -15 0 -17 -16 -20 -25 -5 -3 6 -15 10 -26 10 -17 0 -19 -8 -19 -85
l0 -85 40 0 c22 0 40 -5 40 -10 0 -7 -16 -9 -40 -6 -38 4 -40 3 -40 -24 0 -27
3 -29 48 -33 l47 -3 -47 -2 -48 -2 0 -425 0 -425 1480 0 1480 0 -2 268 c-3
300 5 272 -78 253 -24 -6 -28 -9 -12 -10 19 -1 21 -5 16 -29 -9 -35 -6 -34
-59 -39 -32 -4 -45 -2 -45 7 0 7 -7 10 -16 6 -12 -5 -15 -2 -10 10 3 8 6 22 6
30 0 8 7 14 15 14 21 0 19 20 -2 20 -17 1 -17 2 -1 13 15 12 15 14 0 24 -16
11 -16 12 1 12 9 1 17 6 17 12 0 5 -4 7 -10 4 -6 -4 -10 6 -10 23 0 22 6 32
23 37 19 6 19 8 5 12 -10 2 -18 9 -18 14 0 6 5 7 10 4 6 -3 10 -1 10 4 0 6 -3
11 -7 11 -5 0 -9 34 -11 76 -2 63 0 79 15 91 17 14 17 14 0 9 -16 -5 -17 0
-11 72 3 42 9 91 12 107 4 17 7 63 7 102 0 40 3 73 7 73 7 0 5 20 -4 35 -3 6
-9 24 -12 41 -5 24 -3 33 9 37 12 5 14 17 11 55 -3 26 -2 61 3 78 7 29 8 29
77 26 53 -2 65 0 51 8 -9 6 -15 16 -12 21 4 5 11 7 16 4 5 -4 9 -1 9 4 0 6 -9
11 -20 11 -11 0 -20 3 -21 8 -6 56 -4 62 18 62 l23 0 0 475 0 475 -25 0 c-16
0 -25 -6 -25 -15 0 -8 -7 -15 -15 -15 -9 0 -12 6 -9 15 4 8 1 15 -5 15 -6 0
-11 -5 -11 -11 0 -8 -4 -8 -13 -1 -8 7 -18 7 -27 2 -11 -7 -12 -10 -2 -10 7 0
10 -4 7 -10 -4 -6 -56 -10 -124 -10 -109 0 -119 -2 -124 -19 -4 -16 -13 -19
-53 -18 -45 2 -49 4 -49 27 0 23 4 25 58 28 51 3 57 5 56 25 0 21 -1 21 -9 2
l-9 -20 -1 20 c-1 15 -3 17 -8 5 -10 -21 -42 -25 -42 -5 0 10 -10 15 -31 15
-16 0 -28 -4 -25 -9 8 -12 -48 -19 -114 -14 -127 9 -220 9 -220 1 0 -4 -7 -8
-15 -8 -8 0 -15 5 -15 11 0 5 -6 7 -12 4 -7 -4 -5 0 5 8 17 14 16 15 -7 13
-21 -1 -24 -5 -19 -23 4 -18 1 -23 -15 -23 -11 0 -25 -7 -32 -15 -11 -13 -8
-15 19 -15 24 0 31 -4 31 -20 0 -16 -7 -20 -37 -20 -21 0 -98 -3 -172 -7 -97
-4 -135 -3 -140 6 -4 6 -7 32 -6 56 l2 45 -56 1 c-31 1 -87 0 -125 -1 -59 -2
-68 0 -63 14 4 9 4 16 1 16 -8 0 -34 -28 -34 -37 0 -4 60 -7 132 -6 73 2 127
0 119 -3 -10 -5 -11 -8 -1 -14 18 -11 -100 -23 -179 -18 -48 2 -65 0 -69 -11
-4 -11 2 -13 28 -7 18 3 75 3 127 0 76 -6 93 -10 93 -23 0 -13 -12 -16 -58
-17 -32 -1 -68 -6 -79 -13 -28 -14 -135 -14 -185 1 -40 12 -40 12 -34 51 9 55
13 59 52 54 37 -5 56 8 26 17 -10 3 -62 8 -116 11 -53 2 -101 7 -106 10 -4 3
-11 -1 -14 -7 -4 -8 -8 -9 -11 -3 -3 6 -36 10 -73 9 -49 0 -76 5 -97 18 l-30
19 50 -5 c27 -2 54 -2 58 1 18 11 -18 33 -57 35 l-41 1 45 7 45 7 -52 1 c-41
2 -53 -1 -53 -13 0 -21 -28 -19 -33 3 -4 13 -5 13 -7 2z m-502 -61 c-2 -6 -8
-10 -13 -10 -5 0 -11 4 -13 10 -2 6 4 11 13 11 9 0 15 -5 13 -11z m129 -35
c-3 -3 -12 -4 -19 -1 -8 3 -5 6 6 6 11 1 17 -2 13 -5z m593 -14 c74 -5 146
-10 160 -10 18 0 21 -3 12 -9 -8 -5 -34 -6 -58 -3 -25 2 -50 0 -57 -7 -15 -12
-74 -5 -83 10 -8 14 -41 10 -47 -5 -4 -11 15 -15 86 -21 51 -5 107 -7 125 -6
26 2 32 -1 32 -18 0 -16 -6 -21 -24 -21 -13 0 -26 5 -28 11 -3 9 -10 9 -27 -1
-15 -7 -21 -8 -17 -1 5 7 -8 11 -41 10 -47 -2 -48 -2 -13 -10 31 -7 30 -7 -10
-3 -25 3 -78 4 -117 4 l-73 -1 0 44 c0 49 6 60 29 52 9 -2 77 -9 151 -15z
m-240 1 c0 -12 -19 -18 -82 -27 -34 -4 -48 -3 -48 5 0 7 5 9 10 6 6 -3 10 -1
10 4 0 6 -21 11 -48 11 -43 0 -50 -3 -60 -25 -7 -14 -12 -35 -12 -46 0 -18 -6
-20 -52 -17 l-53 3 3 40 c2 22 9 43 15 47 18 11 317 10 317 -1z m-836 -16 c3
-9 0 -15 -8 -15 -7 0 -13 7 -13 15 0 8 4 15 8 15 4 0 9 -7 13 -15z m2370 -14
c5 -7 1 -8 -9 -5 -8 4 -21 1 -29 -5 -7 -6 -16 -8 -19 -4 -4 3 -13 0 -21 -6 -9
-8 -40 -11 -82 -9 -47 2 -69 -1 -72 -10 -2 -7 -24 -12 -58 -12 -50 0 -54 2
-54 24 0 13 5 26 10 28 29 9 328 9 334 -1z m-1974 -31 c0 -6 -31 -9 -77 -9
-42 1 -71 4 -64 9 19 11 141 12 141 0z m443 3 c-13 -2 -33 -2 -45 0 -13 2 -3
4 22 4 25 0 35 -2 23 -4z m1995 -5 c-6 -18 -28 -21 -28 -4 0 9 7 16 16 16 9 0
14 -5 12 -12z m-761 -34 c-3 -3 -12 -4 -19 -1 -8 3 -5 6 6 6 11 1 17 -2 13 -5z
m171 -1 c-15 -2 -42 -2 -60 0 -18 2 -6 4 27 4 33 0 48 -2 33 -4z m209 1 c-3
-3 -12 -4 -19 -1 -8 3 -5 6 6 6 11 1 17 -2 13 -5z m156 -1 c-7 -2 -21 -2 -30
0 -10 3 -4 5 12 5 17 0 24 -2 18 -5z m-1873 -12 c0 -5 -9 -7 -20 -4 -11 3 -20
7 -20 9 0 2 9 4 20 4 11 0 20 -4 20 -9z m490 -1 c0 -15 -51 -25 -60 -11 -5 9
-21 11 -54 6 -31 -5 -46 -4 -46 4 0 7 28 11 80 11 46 0 80 -4 80 -10z m1600 0
c0 -5 -7 -10 -15 -10 -8 0 -15 5 -15 10 0 6 7 10 15 10 8 0 15 -4 15 -10z
m-330 -15 c0 -9 -6 -12 -16 -8 -13 5 -13 7 -2 14 17 11 18 11 18 -6z m110 -1
c0 -2 -24 -3 -52 -3 -43 1 -47 3 -23 8 28 6 75 3 75 -5z m-2137 -14 c5 -19 0
-20 -88 -20 -70 0 -94 3 -98 14 -9 23 2 26 94 26 78 0 87 -2 92 -20z m572 9
c-4 -5 -15 -7 -26 -4 -10 4 -24 3 -31 -2 -14 -9 -198 -11 -198 -3 0 3 -24 4
-52 3 -42 -1 -47 0 -23 6 47 12 337 12 330 0z m-368 -5 c-3 -3 -12 -4 -19 -1
-8 3 -5 6 6 6 11 1 17 -2 13 -5z m941 -2 c11 -4 11 -6 0 -13 -16 -11 -187 -11
-389 -1 l-154 7 100 6 c118 7 424 8 443 1z m330 -9 c6 -2 12 2 12 7 0 6 16 10
35 10 24 0 33 -4 29 -13 -5 -15 -144 -21 -144 -7 0 10 42 18 50 10 3 -3 11 -6
18 -7z m-81 1 c-7 -7 -209 -6 -216 2 -2 2 47 4 109 4 62 0 111 -3 107 -6z
m963 -9 c0 -8 -4 -15 -10 -15 -5 0 -10 7 -10 15 0 8 5 15 10 15 6 0 10 -7 10
-15z m-1770 -49 l0 -45 -215 0 c-137 0 -215 4 -215 10 0 6 -6 4 -14 -4 -9 -9
-33 -14 -63 -13 -41 1 -48 4 -48 21 0 19 8 20 274 23 244 2 272 4 267 18 -6
15 0 34 10 34 2 0 4 -20 4 -44z m1204 36 c3 -5 -1 -9 -9 -9 -8 0 -15 4 -15 9
0 4 4 8 9 8 6 0 12 -4 15 -8z m116 -4 c0 -5 -18 -8 -40 -8 -22 0 -40 4 -40 9
0 5 18 8 40 8 22 -1 40 -5 40 -9z m300 3 c0 -9 -226 -25 -240 -16 -30 18 2 25
115 25 69 0 125 -4 125 -9z m48 -2 c-2 -6 -8 -10 -13 -10 -5 0 -11 4 -13 10
-2 6 4 11 13 11 9 0 15 -5 13 -11z m42 -4 c0 -8 -2 -15 -4 -15 -2 0 -6 7 -10
15 -3 8 -1 15 4 15 6 0 10 -7 10 -15z m-2380 -10 c0 -10 -11 -15 -35 -15 -41
0 -47 17 -7 23 15 2 30 5 35 6 4 0 7 -6 7 -14z m107 -17 c-3 -7 -5 -2 -5 12 0
14 2 19 5 13 2 -7 2 -19 0 -25z m343 28 c0 -9 -30 -14 -35 -6 -4 6 3 10 14 10
12 0 21 -2 21 -4z m190 -11 c0 -8 -7 -15 -15 -15 -8 0 -15 4 -15 10 0 5 -30
11 -67 13 l-68 3 83 2 c67 2 82 -1 82 -13z m1152 -15 c-2 -11 0 -20 5 -20 14
0 13 -58 -2 -87 -10 -19 -15 -22 -15 -10 0 16 -15 17 -185 17 -103 0 -185 4
-185 9 0 5 -22 9 -50 8 -27 0 -50 -4 -50 -9 0 -4 -9 -8 -20 -8 -14 0 -20 7
-20 24 0 13 -3 31 -6 40 -5 14 10 16 122 17 153 2 232 15 114 20 -41 1 -84 2
-95 1 -50 -5 -137 -2 -148 5 -15 10 228 19 408 16 124 -2 130 -3 127 -23z
m-2012 10 c0 -5 -13 -10 -30 -10 -16 0 -30 5 -30 10 0 6 14 10 30 10 17 0 30
-4 30 -10z m140 1 c0 -4 -25 -9 -55 -10 -31 0 -55 3 -55 9 0 6 25 10 55 10 30
0 55 -4 55 -9z m1310 -1 c0 -6 -30 -10 -70 -10 -40 0 -70 -4 -70 -10 0 -6 30
-10 71 -10 46 0 69 -4 67 -11 -4 -12 -96 -13 -341 -3 -144 6 -159 5 -155 -10
3 -14 29 -16 228 -18 123 -1 238 -5 255 -9 l30 -7 -31 -1 c-41 -1 -43 -31 -2
-31 24 0 27 -2 16 -14 -10 -10 -17 -11 -26 -3 -10 8 -19 8 -32 -1 -22 -13
-290 -15 -290 -2 0 5 -31 8 -70 7 -38 0 -70 -4 -70 -9 0 -14 -38 -8 -44 7 -4
13 8 15 79 15 65 0 83 3 79 13 -5 14 -114 19 -114 5 0 -10 -40 -11 -41 0 0 4
-1 22 -2 40 l-2 32 125 1 c109 0 225 12 195 19 -5 2 -84 6 -175 10 -159 6
-155 6 113 8 179 1 277 -2 277 -8z m1200 -10 c0 -5 -7 -10 -15 -10 -8 0 -15 5
-15 10 0 6 7 10 15 10 8 0 15 -4 15 -10z m-544 -37 c-1 -27 -7 -39 -19 -41
-11 -2 -17 3 -18 15 0 16 -1 16 -9 -2 -8 -19 -9 -19 -9 3 -1 12 4 22 9 22 6 0
10 9 10 20 0 13 7 20 19 20 17 0 19 -6 17 -37z m454 16 c0 -5 -4 -9 -10 -9 -5
0 -10 7 -10 16 0 8 5 12 10 9 6 -3 10 -10 10 -16z m30 6 c0 -8 -4 -15 -10 -15
-5 0 -7 7 -4 15 4 8 8 15 10 15 2 0 4 -7 4 -15z m-2278 -29 c2 -20 2 -39 -1
-41 -2 -3 -85 -5 -183 -5 -119 0 -178 -4 -178 -11 0 -5 5 -7 11 -3 6 3 15 0
20 -7 6 -10 9 -11 9 -1 0 8 18 12 57 12 44 0 54 -3 45 -12 -14 -14 -121 -23
-159 -13 -26 7 -26 8 -8 15 13 6 -12 9 -67 9 -81 1 -88 3 -88 21 0 18 7 20 73
21 39 1 88 2 107 1 l35 -1 -30 8 c-16 5 -25 9 -20 10 6 1 3 6 -5 11 -11 7 3
10 47 10 51 0 61 -3 57 -15 -5 -13 9 -15 97 -13 57 1 85 3 61 5 -23 2 -40 8
-37 14 4 5 1 9 -4 9 -6 0 -11 -4 -11 -9 0 -5 -8 -8 -17 -6 -10 2 -24 4 -30 4
-7 1 -13 4 -13 9 0 4 51 9 114 10 l114 4 4 -36z m1855 28 c-3 -3 -12 -4 -19
-1 -8 3 -5 6 6 6 11 1 17 -2 13 -5z m345 -6 c-9 -9 -15 -9 -24 0 -9 9 -7 12
12 12 19 0 21 -3 12 -12z m138 -18 c0 -5 -7 -10 -15 -10 -8 0 -15 5 -15 10 0
6 7 10 15 10 8 0 15 -4 15 -10z m-63 -22 c-3 -8 -6 -5 -6 6 -1 11 2 17 5 13 3
-3 4 -12 1 -19z m53 -28 c0 -5 -3 -10 -6 -10 -12 0 -34 30 -34 46 0 16 2 15
20 -4 11 -12 20 -26 20 -32z m-240 28 c0 -3 -38 -7 -85 -7 -47 0 -84 3 -81 7
6 9 166 10 166 0z m-222 -5 c-10 -2 -26 -2 -35 0 -10 3 -2 5 17 5 19 0 27 -2
18 -5z m-78 -38 c0 -8 -9 -15 -20 -15 -11 0 -20 7 -20 15 0 8 9 15 20 15 11 0
20 -7 20 -15z m312 3 c-17 -17 -45 -19 -54 -5 -6 9 -8 9 -8 -1 0 -8 -16 -11
-50 -10 -33 2 -50 7 -50 15 0 10 23 13 87 13 67 0 84 -3 75 -12z m128 -3 c0
-8 -4 -15 -9 -15 -13 0 -22 16 -14 24 11 11 23 6 23 -9z m60 11 c0 -2 -7 -9
-15 -16 -12 -10 -15 -10 -15 4 0 9 7 16 15 16 8 0 15 -2 15 -4z m-2400 -17 c0
-5 -5 -7 -10 -4 -6 4 -17 1 -25 -5 -15 -12 -22 0 -8 13 10 11 43 8 43 -4z m37
5 c-3 -3 -12 -4 -19 -1 -8 3 -5 6 6 6 11 1 17 -2 13 -5z m63 -11 c0 -12 -3
-14 -8 -7 -4 7 -16 14 -27 17 -15 4 -14 5 8 6 20 1 27 -4 27 -16z m1463 7 c72
0 117 -4 117 -10 0 -7 -61 -9 -175 -7 -142 3 -175 1 -179 -10 -5 -12 28 -14
207 -13 253 1 237 2 237 -7 0 -5 -33 -9 -72 -9 -40 -1 -102 -2 -138 -3 -36 0
-102 0 -147 2 -61 1 -83 -1 -83 -10 0 -10 28 -13 107 -13 95 0 105 -2 87 -14
-10 -8 -23 -11 -28 -6 -5 5 -18 5 -31 0 -12 -5 -28 -4 -36 1 -8 5 -33 9 -56 9
-32 0 -43 -4 -43 -15 0 -10 -10 -15 -31 -15 -24 0 -30 4 -27 18 2 9 9 16 15
15 11 -2 10 58 -1 76 -8 13 46 20 109 15 28 -2 103 -4 168 -4z m405 3 c-10 -2
-28 -2 -40 0 -13 2 -5 4 17 4 22 1 32 -1 23 -4z m480 -15 c-6 -18 -28 -21 -28
-4 0 9 7 16 16 16 9 0 14 -5 12 -12z m-1768 -24 c0 -21 -12 -44 -22 -44 -5 0
-6 5 -3 11 5 7 -74 8 -260 3 -259 -7 -267 -7 -263 12 3 19 42 22 511 30 23 0
37 -4 37 -12z m1630 1 c19 -6 24 -65 6 -65 -9 0 -12 7 -9 20 3 11 1 20 -3 20
-58 3 -120 14 -125 22 -3 5 -9 0 -12 -11 -5 -20 -1 -21 65 -21 51 0 69 -3 66
-12 -5 -14 -160 -21 -230 -11 -62 9 -47 31 18 28 35 -2 51 1 43 6 -8 5 -33 9
-56 9 -53 0 -57 17 -5 23 44 4 221 -1 242 -8z m-320 -11 c0 -2 -16 -4 -35 -4
-19 0 -35 4 -35 8 0 4 16 6 35 4 19 -2 35 -6 35 -8z m400 6 c0 -5 -4 -10 -10
-10 -5 0 -10 5 -10 10 0 6 5 10 10 10 6 0 10 -4 10 -10z m-1140 -9 c0 -14 -29
-22 -36 -10 -3 6 -21 8 -43 4 -64 -11 -221 -15 -221 -5 0 6 -9 10 -21 10 -11
0 -17 -4 -14 -10 3 -5 1 -10 -4 -10 -6 0 -11 4 -11 9 0 5 -34 8 -75 8 -52 -2
-75 -6 -75 -14 0 -10 52 -13 223 -15 299 -2 297 -2 271 -26 -8 -7 -14 -8 -14
-2 0 5 -7 10 -15 10 -8 0 -15 -4 -15 -10 0 -5 -11 -10 -25 -10 -14 0 -25 6
-25 13 0 8 -4 7 -10 -3 -6 -9 -10 -11 -10 -3 0 9 -26 12 -95 10 -52 -1 -95 -6
-95 -10 0 -5 -5 -5 -12 -1 -7 5 -8 3 -3 -5 5 -9 31 -12 84 -9 107 4 246 -1
238 -8 -3 -4 -47 -6 -98 -5 -61 1 -89 -1 -84 -8 4 -7 -7 -11 -29 -11 -19 0
-37 6 -39 13 -4 9 -8 8 -16 -3 -7 -10 -11 -11 -11 -2 0 6 -7 12 -16 12 -9 0
-12 -5 -8 -12 5 -8 2 -9 -12 -3 -29 13 -184 17 -184 5 0 -16 -27 -12 -34 5 -4
13 8 15 79 15 46 0 87 5 90 10 3 6 3 10 -2 10 -134 6 -156 10 -165 30 -18 40
-18 40 262 40 152 0 270 -4 270 -9z m570 5 c0 -2 -9 -6 -20 -9 -11 -3 -18 -1
-14 4 5 9 34 13 34 5z m620 -11 c0 -8 -7 -15 -15 -15 -26 0 -18 20 13 29 1 1
2 -6 2 -14z m-532 -22 c-5 -26 -38 -29 -38 -4 0 15 6 21 21 21 14 0 19 -5 17
-17z m-1851 -10 c-4 -3 -20 -6 -37 -6 -16 0 -27 -3 -26 -6 2 -3 -9 -6 -25 -6
-16 0 -31 5 -33 11 -3 8 15 12 51 13 31 0 59 3 61 6 3 3 8 3 10 0 3 -3 2 -8
-1 -12z m580 -10 c-3 -3 -39 -1 -79 3 l-73 9 75 5 c67 4 92 -1 77 -17z m1753
23 c0 -3 -4 -8 -10 -11 -5 -3 -10 -1 -10 4 0 6 5 11 10 11 6 0 10 -2 10 -4z
m-2670 -10 c0 -3 -4 -8 -10 -11 -5 -3 -10 -1 -10 4 0 6 5 11 10 11 6 0 10 -2
10 -4z m204 -11 c3 -8 1 -15 -4 -15 -6 0 -10 4 -10 8 0 7 -50 8 -75 2 -25 -6
-85 1 -85 10 0 6 35 10 84 10 65 0 85 -3 90 -15z m483 9 c-10 -11 -127 -14
-127 -4 0 6 30 10 67 10 36 0 64 -3 60 -6z m1429 -26 c-3 -18 -13 -38 -21 -44
-8 -6 -15 -16 -15 -23 0 -6 -7 -11 -15 -11 -8 0 -15 5 -15 10 0 6 5 10 10 10
6 0 10 7 10 15 0 17 -65 19 -202 7 -50 -5 -79 -4 -82 3 -2 5 -5 2 -5 -8 -1
-14 4 -17 19 -12 13 4 20 2 20 -7 0 -11 11 -12 58 -4 62 10 146 1 122 -14 -21
-13 -280 -13 -280 0 0 17 -118 10 -124 -7 -4 -11 36 -13 219 -13 143 0 225 -4
225 -10 0 -11 -22 -13 -106 -10 -29 1 -55 -3 -59 -9 -4 -7 13 -11 49 -11 31 0
56 -5 56 -10 0 -6 -13 -9 -30 -8 -16 2 -30 -1 -30 -7 0 -6 40 -11 96 -13 84
-2 95 -5 92 -20 -2 -9 -10 -16 -16 -15 -7 2 -12 -4 -12 -12 0 -17 -16 -20 -25
-5 -4 6 -16 8 -27 5 -14 -5 -21 -1 -25 14 -6 22 -18 27 -28 11 -3 -6 -15 -6
-30 0 -24 9 -173 5 -183 -5 -5 -4 144 -10 175 -6 6 1 14 -3 18 -9 3 -5 0 -11
-7 -11 -7 -1 -23 -3 -36 -4 -12 -1 -41 1 -65 6 -31 5 -46 4 -58 -7 -9 -8 -18
-11 -21 -8 -4 3 -15 1 -25 -4 -15 -8 -22 -6 -31 9 -10 16 -9 19 3 19 13 0 14
4 5 20 -10 19 -7 20 47 22 l58 2 -53 3 c-32 3 -50 8 -46 14 4 6 -16 9 -55 8
l-61 -2 6 -34 c5 -29 4 -33 -14 -33 -22 0 -33 30 -37 101 -1 20 -5 42 -9 48
-5 8 22 11 96 12 57 1 107 1 111 0 5 -1 6 3 3 8 -3 5 -15 7 -26 4 -11 -3 -20
-1 -20 4 0 5 -25 9 -55 9 -30 -1 -55 -4 -55 -8 0 -15 -38 -8 -44 7 -5 13 14
15 127 16 73 1 172 1 221 0 114 -3 186 7 186 24 0 11 -23 13 -113 10 -63 -2
-120 1 -128 6 -9 5 38 9 125 9 l139 0 -7 -32z m142 25 c-10 -2 -26 -2 -35 0
-10 3 -2 5 17 5 19 0 27 -2 18 -5z m472 -13 c0 -5 -7 -10 -15 -10 -8 0 -15 5
-15 10 0 6 7 10 15 10 8 0 15 -4 15 -10z m-1782 -23 c-7 -8 -15 -11 -18 -7 -3
4 -34 5 -69 2 -84 -6 -59 -22 37 -22 65 0 72 -2 72 -20 0 -16 -7 -20 -32 -20
-18 0 -95 -3 -172 -6 -111 -5 -140 -4 -147 7 -6 10 -9 11 -9 2 0 -20 -48 -15
-59 6 -10 17 -5 19 60 25 39 4 68 10 65 13 -10 11 -130 10 -144 0 -9 -7 -11
-6 -6 6 5 14 28 17 147 19 78 2 175 4 215 6 64 2 72 1 60 -11z m1242 -3 c0 -9
-7 -14 -17 -12 -25 5 -28 28 -4 28 12 0 21 -6 21 -16z m484 1 c-7 -16 -20 -20
-27 -7 -3 4 -74 5 -159 2 -154 -5 -188 -4 -188 9 0 4 85 8 190 9 163 1 188 -1
184 -13z m-411 -2 c-7 -2 -21 -2 -30 0 -10 3 -4 5 12 5 17 0 24 -2 18 -5z
m457 -19 c0 -8 -4 -12 -10 -9 -5 3 -10 10 -10 16 0 5 5 9 10 9 6 0 10 -7 10
-16z m-1333 -10 c-3 -3 -12 -4 -19 -1 -8 3 -5 6 6 6 11 1 17 -2 13 -5z m791
-54 c0 -51 -2 -60 -18 -60 -15 0 -18 8 -16 60 1 48 4 60 17 60 13 0 16 -12 17
-60z m332 50 c0 -5 -11 -10 -25 -10 -14 0 -25 -4 -25 -10 0 -6 40 -10 100 -10
110 0 126 -9 96 -52 -12 -17 -16 -19 -16 -6 0 14 -20 16 -176 16 -96 0 -178 2
-181 5 -3 4 -3 13 0 22 5 11 23 15 77 15 38 0 70 3 70 8 0 4 -25 5 -55 4 -40
-3 -59 0 -71 12 -14 15 -6 16 95 16 67 0 111 -4 111 -10z m147 -12 c-3 -8 -6
-5 -6 6 -1 11 2 17 5 13 3 -3 4 -12 1 -19z m-2677 -8 c0 -18 -7 -20 -60 -20
-53 0 -60 2 -60 20 0 18 7 20 60 20 53 0 60 -2 60 -20z m420 11 c0 -5 -4 -21
-9 -35 -10 -25 -32 -28 -73 -11 -11 4 -24 1 -33 -9 -21 -21 -28 -20 -50 4 -18
20 -17 20 56 21 41 1 77 1 82 0 4 0 7 8 7 19 0 11 5 20 10 20 6 0 10 -4 10 -9z
m1050 -10 c-47 -3 -141 -3 -210 0 -104 4 -90 5 85 6 129 0 177 -3 125 -6z
m1270 -6 c0 -8 -4 -15 -10 -15 -5 0 -10 7 -10 15 0 8 5 15 10 15 6 0 10 -7 10
-15z m-2095 -35 c4 -6 -6 -10 -22 -9 -25 0 -26 1 -8 9 11 5 21 9 22 9 1 1 5
-3 8 -9z m45 0 c0 -5 -7 -10 -16 -10 -8 0 -12 5 -9 10 3 6 10 10 16 10 5 0 9
-4 9 -10z m118 5 c-11 -11 -58 -15 -58 -5 0 5 14 10 32 10 17 0 29 -2 26 -5z
m79 -1 c-3 -3 -12 -4 -19 -1 -8 3 -5 6 6 6 11 1 17 -2 13 -5z m40 0 c-3 -3
-12 -4 -19 -1 -8 3 -5 6 6 6 11 1 17 -2 13 -5z m592 -3 c27 -17 -20 -20 -136
-9 -65 5 -158 8 -208 5 -51 -2 -81 -1 -70 4 26 10 397 10 414 0z m591 5 c0
-11 -19 -15 -25 -6 -3 5 1 10 9 10 9 0 16 -2 16 -4z m630 -11 c0 -8 -7 -15
-15 -15 -8 0 -15 7 -15 15 0 8 7 15 15 15 8 0 15 -7 15 -15z m-1745 -48 c3
-23 6 -53 5 -67 0 -14 0 -38 0 -54 -1 -16 -7 -38 -15 -49 -8 -12 -15 -16 -15
-10 0 6 -13 13 -30 15 -16 3 -30 2 -30 -1 0 -13 -63 -33 -120 -37 -51 -4 -59
-3 -54 11 3 8 14 15 23 16 9 1 3 4 -14 8 -16 4 -72 4 -123 0 -51 -3 -107 -3
-124 0 -30 6 -33 10 -44 71 -7 36 -13 71 -13 78 -1 8 19 12 69 12 66 0 85 9
58 27 -12 7 125 15 339 20 l82 1 6 -41z m1625 21 c0 -12 -58 -10 -65 2 -4 6 8
9 29 8 20 -2 36 -6 36 -10z m-1050 -20 c-1 -22 -1 -23 -15 -4 -13 17 -15 17
-15 4 0 -9 5 -20 10 -23 7 -4 7 -12 0 -25 -6 -10 -6 -20 -1 -22 5 -2 3 -9 -5
-16 -8 -7 -14 -8 -14 -2 0 6 -30 10 -75 10 -43 0 -75 -4 -75 -10 0 -5 6 -11
13 -11 6 -1 19 -3 27 -4 8 -1 44 -3 79 -4 35 0 61 -4 57 -8 -10 -11 -446 -11
-446 -1 0 8 11 9 157 12 90 3 128 16 45 16 -35 0 -52 4 -53 13 0 10 -2 10 -6
0 -6 -15 -39 -17 -48 -3 -3 6 -36 11 -73 12 l-67 2 58 3 c57 4 74 16 38 28
-11 3 -38 5 -61 3 -41 -2 -41 -2 -35 -35 5 -28 3 -33 -14 -33 -15 0 -22 11
-30 50 -6 28 -11 55 -11 60 0 6 110 10 280 10 l280 0 0 -22z m497 9 c2 -3 -10
-4 -26 -3 -17 0 -31 4 -31 9 0 7 48 2 57 -6z m40 7 c-3 -3 -12 -4 -19 -1 -8 3
-5 6 6 6 11 1 17 -2 13 -5z m170 0 c-3 -3 -12 -4 -19 -1 -8 3 -5 6 6 6 11 1
17 -2 13 -5z m463 -14 c0 -5 -7 -10 -15 -10 -8 0 -15 5 -15 10 0 6 7 10 15 10
8 0 15 -4 15 -10z m-102 -8 c19 -2 32 -10 32 -18 0 -11 -4 -12 -19 -4 -14 7
-21 6 -25 -3 -5 -9 -7 -9 -12 1 -3 6 -12 12 -20 12 -9 0 -12 -4 -9 -10 4 -6
-36 -10 -112 -10 -114 0 -143 7 -143 33 0 8 249 8 308 -1z m-448 -17 c0 -8 -7
-15 -15 -15 -8 0 -15 7 -15 15 0 8 7 15 15 15 8 0 15 -7 15 -15z m540 -10 c0
-8 -7 -15 -15 -15 -16 0 -20 12 -8 23 11 12 23 8 23 -8z m-1613 -11 c-3 -3
-12 -4 -19 -1 -8 3 -5 6 6 6 11 1 17 -2 13 -5z m580 0 c-3 -3 -12 -4 -19 -1
-8 3 -5 6 6 6 11 1 17 -2 13 -5z m503 -19 c0 -8 -6 -15 -14 -15 -8 0 -16 7
-20 15 -4 10 1 15 14 15 11 0 20 -7 20 -15z m346 2 c4 -4 -5 -7 -20 -7 -15 0
-25 4 -22 9 7 10 31 9 42 -2z m-278 -4 c-10 -2 -26 -2 -35 0 -10 3 -2 5 17 5
19 0 27 -2 18 -5z m109 1 c-3 -3 -12 -4 -19 -1 -8 3 -5 6 6 6 11 1 17 -2 13
-5z m91 -1 c-16 -2 -40 -2 -55 0 -16 2 -3 4 27 4 30 0 43 -2 28 -4z m-818 -14
c12 -8 10 -9 -7 -4 -14 4 -23 2 -23 -4 0 -17 -27 -13 -34 4 -4 11 2 15 22 15
15 0 34 -5 42 -11z m1090 1 c0 -5 -7 -10 -15 -10 -8 0 -15 5 -15 10 0 6 7 10
15 10 8 0 15 -4 15 -10z m-1633 -6 c-3 -3 -12 -4 -19 -1 -8 3 -5 6 6 6 11 1
17 -2 13 -5z m1083 -19 c0 -8 -9 -15 -20 -15 -11 0 -20 7 -20 15 0 8 9 15 20
15 11 0 20 -7 20 -15z m305 5 c3 -5 -1 -10 -10 -10 -9 0 -13 -4 -10 -10 3 -6
48 -10 101 -10 77 0 94 -3 94 -15 0 -8 -4 -15 -9 -15 -5 0 -7 -8 -4 -19 7 -26
-20 -31 -171 -32 -69 0 -126 -2 -126 -5 0 -2 15 -7 33 -12 29 -9 26 -10 -25
-10 -51 -1 -58 2 -58 19 0 10 -6 19 -14 19 -10 0 -14 11 -13 35 1 29 5 35 23
35 14 0 25 8 29 20 6 18 15 20 80 20 41 0 77 -4 80 -10z m-545 -11 c18 -5 9
-8 -35 -9 -33 -1 -52 -4 -42 -7 9 -2 17 -8 17 -11 0 -4 33 -5 72 -4 40 2 69 0
65 -4 -15 -16 -90 -33 -106 -25 -9 4 -27 2 -41 -5 l-25 -14 28 0 c15 0 27 -5
27 -11 0 -5 -4 -7 -10 -4 -5 3 -18 1 -27 -4 -13 -8 14 -10 100 -11 114 0 117
0 118 23 1 21 1 21 9 -3 19 -59 16 -62 -60 -58 -50 2 -70 0 -70 -9 0 -9 -8 -9
-31 -1 -19 6 -66 8 -120 4 -89 -5 -90 -5 -87 17 3 20 9 22 61 22 39 0 57 4 57
13 0 6 -6 12 -12 12 -9 0 -8 4 2 10 11 7 7 10 -17 10 -25 0 -31 -4 -27 -15 9
-23 -14 -18 -26 6 -7 12 -18 18 -26 15 -8 -3 -14 -1 -14 4 0 6 -22 10 -50 10
-53 0 -53 1 -52 -62 1 -31 -2 -38 -18 -38 -14 0 -20 7 -19 23 0 12 -1 36 -3
53 l-4 31 119 7 c65 3 126 10 135 16 13 7 7 9 -26 10 -28 0 -41 4 -37 11 7 11
134 10 175 -2z m57 5 c-3 -3 -12 -4 -19 -1 -8 3 -5 6 6 6 11 1 17 -2 13 -5z
m101 -5 c-6 -18 -55 -20 -69 -3 -10 12 -5 14 31 14 27 0 40 -4 38 -11z m-1908
-16 c3 -3 -12 -4 -32 -1 -21 2 -38 1 -38 -2 0 -4 -6 -7 -14 -7 -8 0 -12 6 -10
12 5 12 82 10 94 -2z m900 6 c0 -6 -9 -8 -20 -4 -11 4 -20 2 -20 -4 0 -17 -27
-13 -34 4 -4 12 3 15 34 15 22 0 40 -5 40 -11z m630 0 c-19 -5 -50 -6 -67 -4
-19 3 -33 0 -33 -5 0 -15 -26 -12 -40 5 -11 13 -1 15 81 14 75 -1 87 -3 59
-10z m1000 1 c0 -5 -4 -10 -10 -10 -5 0 -10 5 -10 10 0 6 5 10 10 10 6 0 10
-4 10 -10z m-2437 -7 c-13 -2 -33 -2 -45 0 -13 2 -3 4 22 4 25 0 35 -2 23 -4z
m1887 -18 c0 -8 -7 -15 -15 -15 -8 0 -15 7 -15 15 0 8 7 15 15 15 8 0 15 -7
15 -15z m-721 -3 c52 -1 92 -4 90 -7 -3 -2 -114 -5 -247 -5 -144 -1 -242 -5
-242 -11 0 -15 -27 -10 -33 6 -5 12 13 15 116 17 67 2 145 3 172 2 28 0 92 -2
144 -2z m638 -14 c-3 -8 -6 -5 -6 6 -1 11 2 17 5 13 3 -3 4 -12 1 -19z m623 3
c0 -6 -4 -13 -10 -16 -5 -3 -10 1 -10 9 0 9 5 16 10 16 6 0 10 -4 10 -9z
m-540 -35 c0 -19 -4 -23 -20 -19 -11 3 -20 14 -20 24 0 12 7 19 20 19 14 0 20
-7 20 -24z m-1890 6 c0 -5 -23 -8 -51 -8 -33 0 -45 3 -33 7 26 10 84 11 84 1z
m400 -2 c0 -5 -3 -10 -7 -11 -5 0 -19 -3 -33 -5 -30 -6 -53 3 -45 16 8 13 85
13 85 0z m27 -22 c-3 -7 -5 -2 -5 12 0 14 2 19 5 13 2 -7 2 -19 0 -25z m591
15 c-211 -3 -248 -6 -248 -18 0 -13 35 -15 247 -15 135 0 244 -3 241 -6 -3 -3
-114 -5 -247 -4 -159 0 -241 -3 -241 -10 0 -11 -30 -14 -31 -2 0 4 -2 19 -3
35 l-2 27 266 -2 265 -3 -247 -2z m452 -3 c0 -5 -2 -10 -4 -10 -3 0 -8 5 -11
10 -3 6 -1 10 4 10 6 0 11 -4 11 -10z m201 -1 c-16 -6 -28 -6 -35 1 -7 7 1 10
25 9 32 0 33 -1 10 -10z m749 1 c0 -5 -4 -10 -10 -10 -5 0 -10 5 -10 10 0 6 5
10 10 10 6 0 10 -4 10 -10z m-1477 -17 c-7 -2 -21 -2 -30 0 -10 3 -4 5 12 5
17 0 24 -2 18 -5z m75 0 c-10 -2 -28 -2 -40 0 -13 2 -5 4 17 4 22 1 32 -1 23
-4z m65 0 c-7 -2 -21 -2 -30 0 -10 3 -4 5 12 5 17 0 24 -2 18 -5z m60 0 c-7
-2 -19 -2 -25 0 -7 3 -2 5 12 5 14 0 19 -2 13 -5z m787 3 c0 -3 -4 -8 -10 -11
-5 -3 -10 -1 -10 4 0 6 5 11 10 11 6 0 10 -2 10 -4z m430 -12 c0 -8 -5 -12
-10 -9 -6 4 -8 11 -5 16 9 14 15 11 15 -7z m-2342 -1 c-38 -2 -68 -8 -68 -13
0 -5 -10 -11 -22 -13 -13 -2 1 -5 30 -6 33 0 51 3 47 9 -3 6 -1 10 4 10 6 0
11 -4 11 -10 0 -5 9 -10 21 -10 11 0 18 -4 14 -10 -3 -5 -12 -7 -20 -3 -9 3
-23 -1 -32 -8 -12 -10 -15 -10 -9 -1 5 8 -1 12 -18 12 -14 0 -26 -5 -26 -11 0
-8 -5 -8 -15 1 -12 10 -15 10 -16 -1 0 -10 -2 -10 -5 -2 -6 13 -35 6 -46 -11
-5 -8 -8 -8 -8 0 0 7 -9 14 -20 17 -13 3 -20 0 -20 -8 0 -14 -20 -13 -63 2
-19 6 -18 8 13 13 23 4 34 11 32 19 -6 26 22 31 153 29 72 -1 100 -3 63 -5z
m1259 -40 c-3 -10 -5 -4 -5 12 0 17 2 24 5 18 2 -7 2 -21 0 -30z m114 19 c-13
-2 -27 0 -32 5 -6 6 3 7 23 4 28 -4 29 -6 9 -9z m1029 3 c0 -8 -4 -15 -10 -15
-5 0 -10 7 -10 15 0 8 5 15 10 15 6 0 10 -7 10 -15z m-1726 -20 c-7 -18 -41
-20 -47 -2 -3 9 -9 9 -26 -1 -15 -8 -21 -9 -21 -1 0 7 -7 8 -17 4 -43 -17
-135 -21 -205 -10 -33 5 -52 4 -62 -5 -15 -12 -36 -6 -36 10 0 13 52 16 247
18 150 2 172 0 167 -13z m1196 6 c0 -5 3 -23 6 -40 5 -24 3 -31 -10 -31 -9 0
-16 4 -16 9 0 5 -3 23 -6 40 -5 24 -3 31 10 31 9 0 16 -4 16 -9z m408 3 c-3
-3 -43 -5 -89 -5 -54 0 -86 -4 -91 -12 -6 -9 -8 -9 -8 1 0 6 -9 12 -20 12 -11
0 -20 -6 -21 -12 0 -9 -2 -9 -6 1 -5 11 -7 11 -14 0 -6 -10 -9 -11 -9 -1 0 6
-6 12 -14 12 -8 0 -17 -6 -19 -12 -3 -8 -6 -6 -6 5 -1 15 13 17 151 17 83 0
149 -3 146 -6z m62 -8 c0 -9 -7 -12 -20 -9 -31 8 -34 23 -6 23 16 0 26 -6 26
-14z m110 -19 c10 -4 8 -6 -7 -6 -16 -1 -23 5 -23 17 0 10 3 13 8 6 4 -6 14
-14 22 -17z m33 16 c-7 -2 -19 -2 -25 0 -7 3 -2 5 12 5 14 0 19 -2 13 -5z
m-1485 -10 c-211 -3 -248 -6 -248 -18 0 -13 36 -15 251 -15 l251 0 -6 -60 c-4
-39 -2 -60 5 -60 6 0 9 -17 7 -42 l-3 -43 -122 -3 c-68 -1 -123 -6 -123 -11 0
-11 -74 -8 -82 4 -5 6 -8 5 -8 -2 0 -7 -7 -13 -15 -13 -8 0 -15 5 -15 10 0 6
-25 10 -55 10 -30 0 -55 -4 -55 -10 0 -11 -29 -14 -31 -2 -1 4 -3 21 -4 37 -1
17 -6 46 -10 65 -5 19 -8 52 -7 73 1 21 -3 49 -8 62 l-10 25 268 -2 267 -3
-247 -2z m325 -13 c-3 -11 -1 -20 4 -20 5 0 7 -18 5 -40 l-4 -40 43 -2 44 -1
-43 -4 -44 -4 2 -67 c4 -102 2 -112 -19 -112 -17 0 -19 6 -15 68 3 37 1 88 -4
114 -6 30 -6 48 0 50 7 3 6 17 0 41 -10 35 -9 37 13 37 18 0 22 -4 18 -20z
m-1507 -25 c-3 -9 -10 -13 -16 -10 -6 4 -5 11 3 20 15 16 22 11 13 -10z m2534
10 c0 -8 -2 -15 -4 -15 -2 0 -6 7 -10 15 -3 8 -1 15 4 15 6 0 10 -7 10 -15z
m-1920 -10 c0 -9 -9 -15 -25 -15 -16 0 -25 6 -25 15 0 9 9 15 25 15 16 0 25
-6 25 -15z m1808 1 c3 -3 -14 -6 -37 -6 -27 0 -40 4 -36 10 7 11 61 7 73 -4z
m-2496 -13 c3 -15 4 -15 21 1 15 15 17 15 17 2 0 -14 23 -16 181 -16 166 0
180 -1 177 -17 -3 -15 -15 -18 -66 -19 -37 -1 -68 3 -74 10 -13 14 -80 8 -90
-8 -5 -7 -8 -4 -8 8 0 15 -3 16 -15 6 -12 -10 -15 -10 -15 1 -1 10 -4 9 -14
-3 -11 -15 -30 -18 -124 -18 -68 0 -113 4 -117 11 -10 16 1 22 42 25 21 1 46
2 55 3 11 1 15 6 12 16 -4 8 -1 15 4 15 6 0 12 -8 14 -17z m2376 10 c-15 -2
-42 -2 -60 0 -18 2 -6 4 27 4 33 0 48 -2 33 -4z m-545 -10 c-13 -2 -33 -2 -45
0 -13 2 -3 4 22 4 25 0 35 -2 23 -4z m115 0 c-15 -2 -42 -2 -60 0 -18 2 -6 4
27 4 33 0 48 -2 33 -4z m-1038 -18 c0 -8 -4 -15 -10 -15 -5 0 -10 4 -10 9 0 5
-8 12 -17 14 -11 3 -7 5 10 6 18 1 27 -4 27 -14z m1707 -7 c-3 -8 -6 -5 -6 6
-1 11 2 17 5 13 3 -3 4 -12 1 -19z m-1982 2 c3 -5 -3 -10 -14 -10 -12 0 -21 5
-21 10 0 6 6 10 14 10 8 0 18 -4 21 -10z m1423 -3 c1 -4 2 -13 1 -19 0 -10 -2
-10 -6 0 -6 15 -103 17 -103 2 0 -5 -12 -10 -27 -11 -25 0 -26 -1 -8 -9 18 -8
18 -9 2 -9 -10 -1 -20 6 -23 14 -4 10 -21 14 -57 14 -29 0 -77 3 -107 8 -49 7
-41 9 75 13 165 6 249 5 253 -3z m92 -25 c0 -28 -4 -39 -15 -39 -11 0 -15 11
-15 39 0 27 4 38 15 38 11 0 15 -11 15 -38z m-483 22 c-3 -3 -12 -4 -19 -1 -8
3 -5 6 6 6 11 1 17 -2 13 -5z m-723 -29 c-4 -8 -8 -15 -10 -15 -2 0 -4 7 -4
15 0 8 4 15 10 15 5 0 7 -7 4 -15z m1391 -5 c4 -6 -6 -10 -22 -9 -25 0 -26 1
-8 9 11 5 21 9 22 9 1 1 5 -3 8 -9z m30 0 c3 -5 1 -10 -4 -10 -6 0 -11 5 -11
10 0 6 2 10 4 10 3 0 8 -4 11 -10z m-2348 -6 c-3 -3 -12 -4 -19 -1 -8 3 -5 6
6 6 11 1 17 -2 13 -5z m150 0 c-3 -3 -12 -4 -19 -1 -8 3 -5 6 6 6 11 1 17 -2
13 -5z m60 0 c-3 -3 -12 -4 -19 -1 -8 3 -5 6 6 6 11 1 17 -2 13 -5z m1541 -1
c-15 -2 -42 -2 -60 0 -18 2 -6 4 27 4 33 0 48 -2 33 -4z m256 -8 c-4 -8 -10
-15 -15 -15 -5 0 -9 7 -9 15 0 8 7 15 15 15 9 0 12 -6 9 -15z m326 -25 c0 -5
-13 -10 -30 -10 -16 0 -30 5 -30 10 0 6 14 10 30 10 17 0 30 -4 30 -10z m110
0 c0 -5 -20 -10 -44 -10 -25 0 -48 5 -51 10 -4 6 13 10 44 10 28 0 51 -4 51
-10z m100 -6 c0 -2 -13 -4 -30 -4 -16 0 -30 4 -30 8 0 5 14 7 30 4 17 -2 30
-6 30 -8z m-1923 0 c-3 -3 -12 -4 -19 -1 -8 3 -5 6 6 6 11 1 17 -2 13 -5z
m121 -1 c-16 -2 -40 -2 -55 0 -16 2 -3 4 27 4 30 0 43 -2 28 -4z m1160 0 c-10
-2 -18 -9 -18 -14 0 -15 -191 -10 -207 7 -13 12 3 14 114 13 70 -1 120 -3 111
-6z m106 -8 c-4 -8 -10 -15 -15 -15 -5 0 -9 7 -9 15 0 8 7 15 15 15 9 0 12 -6
9 -15z m183 9 c-3 -3 -12 -4 -19 -1 -8 3 -5 6 6 6 11 1 17 -2 13 -5z m-1797
-34 c10 -19 8 -20 -57 -20 -37 0 -74 4 -82 9 -8 6 -24 6 -38 0 -14 -5 -23 -5
-23 1 0 6 -9 10 -20 10 -11 0 -20 -6 -20 -12 0 -9 -3 -10 -8 -2 -4 6 -29 12
-57 12 -38 2 -46 -1 -35 -9 12 -8 10 -9 -7 -4 -13 3 -23 2 -23 -3 0 -4 -33 -8
-72 -8 -58 1 -73 4 -73 16 0 13 34 16 225 20 124 3 237 7 252 8 19 1 31 -4 38
-18z m458 13 c-10 -2 -26 -2 -35 0 -10 3 -2 5 17 5 19 0 27 -2 18 -5z m52 -12
c0 -14 5 -18 19 -14 16 4 18 -1 17 -51 0 -60 -3 -64 -20 -41 -9 12 -37 16
-139 16 -71 0 -131 -2 -135 -5 -3 -3 11 -6 31 -6 21 0 37 -4 37 -10 0 -5 -18
-10 -40 -10 -29 0 -40 4 -40 15 0 12 -13 15 -56 15 l-56 0 7 33 c4 17 8 33 9
34 1 1 77 3 169 4 158 1 167 2 167 20 0 10 7 19 15 19 8 0 15 -9 15 -19z
m1328 12 c-15 -2 -42 -2 -60 0 -18 2 -6 4 27 4 33 0 48 -2 33 -4z m322 -3 c-8
-5 -22 -10 -32 -10 -9 0 -18 -5 -20 -11 -2 -5 -11 -7 -22 -3 -12 5 -14 9 -6
14 7 4 -11 8 -39 8 -27 1 -53 -3 -56 -8 -8 -13 -65 -13 -65 -1 0 5 -12 12 -27
14 -16 2 42 5 127 5 103 1 150 -2 140 -8z m-690 -21 c48 0 58 -3 39 -9 -35
-10 -169 -10 -169 0 0 12 22 19 45 15 11 -3 49 -5 85 -6z m260 -28 c0 -10 -7
-21 -15 -25 -11 -4 -15 1 -15 19 0 16 6 25 15 25 8 0 15 -9 15 -19z m-1776
-12 c-3 -5 -10 -7 -15 -3 -5 3 -7 10 -3 15 3 5 10 7 15 3 5 -3 7 -10 3 -15z
m1693 -1 c-3 -8 -6 -5 -6 6 -1 11 2 17 5 13 3 -3 4 -12 1 -19z m-232 -8 c-44
-3 -84 -2 -89 2 -6 4 30 7 80 6 l89 -1 -80 -7z m158 3 c-13 -2 -35 -2 -50 0
-16 2 -5 4 22 4 28 0 40 -2 28 -4z m-1717 -18 c-15 -8 -36 -15 -45 -15 -9 1
-3 7 14 15 41 18 67 19 31 0z m2315 -25 c22 0 29 -5 29 -19 0 -20 -25 -35 -41
-25 -5 3 -9 -2 -9 -10 0 -9 -4 -16 -10 -16 -5 0 -10 7 -10 15 0 23 -89 21
-106 -2 -9 -13 -9 -22 -2 -31 6 -7 9 -14 7 -16 -2 -1 -44 0 -94 4 -77 6 -82 7
-35 10 30 1 62 2 70 1 13 -1 13 0 0 8 -8 5 -41 8 -73 7 -54 -2 -58 0 -63 24
-3 14 -7 31 -10 38 -2 9 32 12 152 12 130 0 155 2 151 14 -3 8 -3 17 1 21 4 4
8 -3 10 -14 3 -16 11 -21 33 -21z m19 30 c0 -5 -8 -10 -17 -10 -15 0 -16 2 -3
10 19 12 20 12 20 0z m-2410 -10 c10 -6 -6 -9 -52 -7 -38 1 -68 5 -68 9 0 11
102 10 120 -2z m1330 -20 c0 -30 -11 -50 -29 -50 -10 0 -12 -3 -5 -8 7 -4 -56
-6 -140 -6 -155 2 -186 -1 -186 -16 0 -4 75 -8 166 -9 178 0 229 -7 93 -13
-82 -3 -374 6 -310 10 28 2 33 5 28 22 -6 23 -12 22 136 20 65 -1 97 3 97 10
0 7 -19 9 -57 6 -32 -3 -85 -2 -118 3 -41 6 -50 9 -30 11 17 2 35 4 40 5 6 2
38 3 73 4 107 2 70 21 -45 23 l-108 2 85 5 c47 3 136 5 198 3 101 -3 112 -5
112 -22z m693 13 c-7 -2 -19 -2 -25 0 -7 3 -2 5 12 5 14 0 19 -2 13 -5z m184
1 c-3 -3 -12 -4 -19 -1 -8 3 -5 6 6 6 11 1 17 -2 13 -5z m-2290 -20 c-3 -3
-12 -4 -19 -1 -8 3 -5 6 6 6 11 1 17 -2 13 -5z m133 -9 c20 -11 21 -14 7 -15
-10 0 -25 7 -33 15 -19 19 -7 19 26 0z m110 0 c0 -8 -5 -15 -11 -15 -5 0 -7 5
-4 10 3 6 1 10 -4 10 -6 0 -11 -6 -12 -12 0 -10 -2 -10 -6 0 -2 6 -9 12 -14
12 -6 0 -7 -4 -4 -10 3 -5 1 -10 -4 -10 -6 0 -11 7 -11 15 0 10 11 15 35 15
24 0 35 -5 35 -15z m1786 -14 c-10 -16 -36 -13 -36 3 0 17 21 27 34 16 4 -5 5
-13 2 -19z m-366 -1 c8 -11 18 -20 23 -20 4 0 3 9 -3 20 -10 20 -8 20 112 19
68 -1 114 -3 103 -6 -11 -3 -24 -9 -30 -14 -5 -5 -36 -9 -70 -10 -38 0 -53 -3
-41 -8 18 -7 18 -8 2 -14 -10 -4 -37 -7 -61 -7 -24 0 -47 -4 -50 -10 -9 -15
-65 -12 -65 3 0 29 13 56 29 60 31 9 37 7 51 -13z m277 -2 c-3 -8 -6 -5 -6 6
-1 11 2 17 5 13 3 -3 4 -12 1 -19z m-1987 8 c0 -2 -7 -6 -15 -10 -8 -3 -15 -1
-15 4 0 6 7 10 15 10 8 0 15 -2 15 -4z m43 -3 c-7 -2 -19 -2 -25 0 -7 3 -2 5
12 5 14 0 19 -2 13 -5z m80 0 c-13 -2 -33 -2 -45 0 -13 2 -3 4 22 4 25 0 35
-2 23 -4z m861 -8 c-4 -8 -12 -15 -20 -15 -8 0 -14 7 -14 15 0 8 9 15 20 15
13 0 18 -5 14 -15z m550 0 c-4 -8 -15 -15 -25 -15 -10 0 -19 7 -19 15 0 9 9
15 25 15 18 0 23 -4 19 -15z m-734 -13 c0 -4 -13 -9 -30 -10 -16 -1 -30 2 -30
7 0 5 9 7 20 4 12 -3 20 0 20 6 0 7 5 9 10 6 6 -3 10 -9 10 -13z m-100 -4 c0
-5 -42 -8 -92 -7 -51 1 -82 4 -69 7 34 10 161 9 161 0z m30 2 c0 -5 -4 -10
-10 -10 -5 0 -10 5 -10 10 0 6 5 10 10 10 6 0 10 -4 10 -10z m1140 -14 c0 -8
-10 -13 -25 -13 -20 0 -23 2 -14 13 6 8 18 14 25 14 8 0 14 -6 14 -14z m124
-1 c-7 -17 -24 -20 -24 -5 0 7 -7 7 -21 0 -23 -13 -35 -8 -24 9 3 6 22 11 40
11 26 0 33 -3 29 -15z m82 -7 c-3 -13 -6 -26 -6 -30 0 -5 -7 -8 -15 -8 -17 0
-18 4 -9 38 4 12 13 22 21 22 11 0 14 -6 9 -22z m-1103 -8 c3 -11 1 -20 -4
-20 -5 0 -9 -7 -9 -15 0 -8 -7 -15 -15 -15 -8 0 -15 7 -15 15 0 8 4 15 9 15 5
0 7 9 4 20 -4 13 0 20 10 20 8 0 17 -9 20 -20z m547 5 c0 -8 -6 -15 -14 -15
-8 0 -16 7 -20 15 -4 10 1 15 14 15 11 0 20 -7 20 -15z m-626 -10 c-4 -8 -7
-15 -9 -15 -2 0 -5 7 -9 15 -3 9 0 15 9 15 9 0 12 -6 9 -15z m143 9 c-3 -3
-12 -4 -19 -1 -8 3 -5 6 6 6 11 1 17 -2 13 -5z m-947 -14 c-20 -13 -57 -13
-65 0 -4 6 11 10 37 10 31 0 39 -3 28 -10z m221 0 c5 0 9 -4 9 -10 0 -15 -20
-12 -38 7 -16 16 -16 16 1 10 10 -4 23 -7 28 -7z m309 -6 c0 -2 -14 -4 -31 -4
-16 0 -28 4 -25 9 5 8 56 3 56 -5z m70 4 c0 -4 -9 -8 -20 -8 -11 0 -20 4 -20
9 0 6 9 9 20 8 11 -1 20 -5 20 -9z m40 2 c0 -5 -7 -10 -16 -10 -8 0 -12 5 -9
10 3 6 10 10 16 10 5 0 9 -4 9 -10z m1139 -7 c42 3 66 3 54 0 -13 -2 -23 -8
-23 -12 0 -4 -54 -8 -120 -9 -75 -1 -120 2 -120 8 0 5 16 10 36 10 19 0 33 4
29 9 -3 6 11 5 32 -1 20 -5 71 -8 112 -5z m158 -5 c-3 -8 -6 -5 -6 6 -1 11 2
17 5 13 3 -3 4 -12 1 -19z m503 12 c0 -5 -4 -10 -10 -10 -5 0 -10 5 -10 10 0
6 5 10 10 10 6 0 10 -4 10 -10z m-550 -30 c0 -16 -2 -30 -4 -30 -2 0 -6 14 -8
30 -3 17 -1 30 4 30 4 0 8 -13 8 -30z m-460 5 c0 -12 15 -15 68 -17 l67 -2
-67 -3 c-51 -3 -68 -8 -68 -18 0 -8 8 -16 18 -16 16 -1 16 -2 0 -6 -12 -3 -18
-14 -18 -34 0 -21 -5 -29 -18 -29 -16 0 -19 9 -18 70 1 60 4 70 19 70 9 0 17
-7 17 -15z m-1293 -5 l125 0 -3 -47 c-3 -52 -11 -63 -49 -63 -20 0 -22 2 -10
11 11 8 6 9 -20 5 -104 -17 -140 -18 -140 -7 0 6 -14 11 -32 11 -17 0 -29 3
-25 6 3 3 43 6 89 6 86 0 118 4 118 17 0 13 -73 12 -81 -1 -6 -8 -9 -9 -9 -2
0 14 -223 8 -228 -6 -2 -6 -30 -10 -63 -10 -52 0 -59 2 -59 20 0 18 7 20 60
20 57 0 74 10 48 27 -15 9 82 22 126 17 16 -2 85 -4 153 -4z m443 1 c0 -6 -5
-13 -12 -17 -7 -4 -8 -3 -4 4 4 7 2 12 -3 12 -6 0 -11 -4 -11 -8 0 -5 -7 -9
-15 -9 -8 0 -12 4 -9 8 2 4 -4 10 -13 12 -10 3 1 5 25 6 23 0 42 -3 42 -8z
m128 2 c-21 -2 -57 -2 -80 0 -24 2 -7 4 37 4 44 0 63 -2 43 -4z m789 1 c-3 -3
-12 -4 -19 -1 -8 3 -5 6 6 6 11 1 17 -2 13 -5z m613 -13 c0 -16 9 -18 82 -20
45 -1 84 -3 85 -5 1 -1 0 -11 -3 -21 -5 -18 -15 -20 -86 -22 -44 -2 -87 -8
-94 -14 -10 -8 -14 -8 -14 0 0 6 -20 12 -47 13 l-48 2 48 3 c39 3 47 8 47 24
0 10 4 19 9 19 5 0 7 9 4 20 -3 11 0 20 6 20 6 0 11 -8 11 -19z m-120 -6 c0
-8 -9 -15 -20 -15 -11 0 -20 7 -20 15 0 8 9 15 20 15 11 0 20 -7 20 -15z m330
-1 c0 -2 -15 -4 -32 -3 -27 0 -29 2 -13 8 18 8 45 4 45 -5z m-972 -33 l2 -39
-104 -7 c-94 -7 -244 4 -188 13 37 6 25 22 -17 22 -28 0 -41 -5 -46 -17 -6
-17 -7 -17 -19 0 -18 23 -106 25 -106 1 0 -9 -6 -14 -12 -11 -7 2 -13 18 -13
35 -1 24 4 32 17 32 10 0 18 -7 18 -15 0 -11 12 -15 50 -15 37 0 50 4 50 14 0
11 -14 16 -47 19 -27 2 56 4 182 5 l230 2 3 -39z m885 32 c-7 -2 -19 -2 -25 0
-7 3 -2 5 12 5 14 0 19 -2 13 -5z m-1766 -29 c-3 -3 -12 -4 -19 -1 -8 3 -5 6
6 6 11 1 17 -2 13 -5z m76 -1 c-7 -2 -19 -2 -25 0 -7 3 -2 5 12 5 14 0 19 -2
13 -5z m44 1 c-3 -3 -12 -4 -19 -1 -8 3 -5 6 6 6 11 1 17 -2 13 -5z m71 -1
c-10 -2 -28 -2 -40 0 -13 2 -5 4 17 4 22 1 32 -1 23 -4z m1232 -10 c0 -10 -4
-14 -8 -8 -4 6 -11 13 -16 18 -5 4 -2 7 7 7 10 0 17 -8 17 -17z m90 2 c0 -8
-9 -15 -20 -15 -11 0 -20 7 -20 15 0 8 9 15 20 15 11 0 20 -7 20 -15z m-473
-1 c-3 -3 -12 -4 -19 -1 -8 3 -5 6 6 6 11 1 17 -2 13 -5z m-697 -25 c0 -19 -4
-20 -97 -15 -54 2 -126 7 -161 9 -39 4 -60 2 -56 -4 3 -6 -12 -9 -41 -8 -25 2
-49 8 -53 15 -4 6 -16 14 -27 17 -11 2 82 5 208 6 223 1 227 1 227 -20z m845
11 c-7 -12 -95 -11 -95 1 0 5 23 9 51 9 29 0 48 -4 44 -10z m-1695 -10 c13 -9
13 -10 0 -11 -8 0 -3 -5 13 -11 39 -14 35 -38 -7 -38 -19 0 -38 5 -41 10 -4 6
6 10 22 10 l28 0 -29 15 c-22 12 -32 12 -42 4 -8 -6 -14 -9 -14 -6 0 3 -3 12
-6 21 -5 13 1 16 27 16 19 0 41 -5 49 -10z m2020 -15 c0 -8 -7 -15 -15 -15 -8
0 -15 7 -15 15 0 8 7 15 15 15 8 0 15 -7 15 -15z m-420 -9 c0 -8 -4 -18 -10
-21 -5 -3 -10 -4 -10 -1 0 2 -3 11 -6 20 -4 11 -1 16 10 16 9 0 16 -6 16 -14z
m40 5 c0 -6 -4 -13 -10 -16 -5 -3 -10 1 -10 9 0 9 5 16 10 16 6 0 10 -4 10 -9z
m116 -4 c4 -4 -18 -7 -50 -7 -31 0 -55 3 -53 8 6 9 94 9 103 -1z m242 -45 c2
-24 -1 -32 -12 -32 -12 0 -16 10 -16 36 0 45 24 42 28 -4z m162 34 c0 -3 -4
-8 -10 -11 -5 -3 -10 -1 -10 4 0 6 5 11 10 11 6 0 10 -2 10 -4z m57 -2 c-3 -3
-12 -4 -19 -1 -8 3 -5 6 6 6 11 1 17 -2 13 -5z m70 -5 c-14 -8 -22 -8 -30 0
-8 8 -3 11 19 11 25 -1 27 -2 11 -11z m-2114 -6 c-13 -2 -35 -2 -50 0 -16 2
-5 4 22 4 28 0 40 -2 28 -4z m1225 -20 l3 -23 -233 2 c-128 1 -212 3 -185 5
45 4 66 21 30 25 -43 4 144 14 257 14 122 -1 125 -2 128 -23z m532 23 c0 -11
-19 -15 -25 -6 -3 5 1 10 9 10 9 0 16 -2 16 -4z m-1002 -76 c0 -54 -3 -70 -14
-70 -8 0 -14 3 -15 8 0 4 -2 35 -5 70 -5 56 -3 62 14 62 17 0 19 -8 20 -70z
m536 55 c-4 -8 -12 -15 -20 -15 -8 0 -14 7 -14 15 0 8 9 15 20 15 13 0 18 -5
14 -15z m-876 -2 c-15 -2 -42 -2 -60 0 -18 2 -6 4 27 4 33 0 48 -2 33 -4z m75
0 c-7 -2 -19 -2 -25 0 -7 3 -2 5 12 5 14 0 19 -2 13 -5z m110 -23 c34 1 68 1
75 1 19 -1 14 -35 -8 -54 -11 -9 -20 -12 -20 -7 0 6 -32 10 -75 10 -60 0 -75
-3 -75 -15 0 -12 -18 -15 -104 -15 l-105 0 2 35 2 35 65 1 c36 1 71 1 78 0 6
-1 12 3 12 9 0 5 18 10 40 10 25 0 40 5 41 13 1 6 3 4 6 -6 4 -15 14 -18 66
-17z m40 23 c-7 -2 -19 -2 -25 0 -7 3 -2 5 12 5 14 0 19 -2 13 -5z m1407 -10
c0 -11 -3 -14 -8 -7 -4 6 -14 14 -22 17 -10 4 -8 6 8 6 15 1 22 -5 22 -16z
m78 10 c-10 -2 -28 -2 -40 0 -13 2 -5 4 17 4 22 1 32 -1 23 -4z m170 -10 c-4
-20 -68 -32 -68 -14 0 6 -7 11 -15 11 -8 0 -15 -4 -15 -10 0 -15 -19 -12 -36
4 -8 8 -14 16 -14 18 0 2 34 5 76 6 67 2 75 0 72 -15z m-348 -8 c0 -8 -2 -15
-4 -15 -2 0 -6 7 -10 15 -3 8 -1 15 4 15 6 0 10 -7 10 -15z m-390 -10 c0 -19
80 -21 99 -2 11 10 14 10 18 0 3 -8 22 -13 44 -13 33 0 39 -3 39 -20 0 -20 -5
-21 -90 -18 -84 3 -107 9 -77 21 7 3 5 6 -5 6 -10 1 -18 -5 -18 -12 0 -14 -51
-17 -61 -4 -3 5 -9 -1 -12 -12 -3 -12 -1 -19 3 -16 5 3 11 1 15 -5 4 -6 -5
-10 -20 -10 -21 0 -25 4 -20 19 8 25 -9 35 -28 17 -18 -19 -51 -14 -55 7 -3
13 4 17 32 17 38 0 57 17 35 31 -9 6 7 9 44 9 44 0 57 -3 57 -15z m160 5 c0
-5 -4 -10 -9 -10 -6 0 -13 5 -16 10 -3 6 1 10 9 10 9 0 16 -4 16 -10z m40 6
c0 -3 -4 -8 -10 -11 -5 -3 -10 -1 -10 4 0 6 5 11 10 11 6 0 10 -2 10 -4z
m-1773 -12 c-3 -3 -12 -4 -19 -1 -8 3 -5 6 6 6 11 1 17 -2 13 -5z m1309 -16
c-3 -13 -5 -46 -5 -74 -1 -38 -5 -51 -16 -51 -18 0 -20 37 -2 38 10 0 10 2 0
6 -8 3 -13 24 -13 54 0 42 3 49 20 49 15 0 19 -5 16 -22z m861 16 c-3 -3 -12
-4 -19 -1 -8 3 -5 6 6 6 11 1 17 -2 13 -5z m-1254 -11 c-7 -2 -19 -2 -25 0 -7
3 -2 5 12 5 14 0 19 -2 13 -5z m155 0 c-21 -2 -57 -2 -80 0 -24 2 -7 4 37 4
44 0 63 -2 43 -4z m-918 -18 c0 -12 -14 -15 -70 -15 -40 0 -70 4 -70 10 0 15
-147 13 -152 -2 -3 -8 -36 -12 -108 -13 -92 0 -105 2 -108 18 -3 16 14 17 252
17 221 0 256 -2 256 -15z m1690 0 c0 -8 -6 -15 -12 -16 -10 0 -10 -2 0 -6 17
-7 15 -33 -3 -33 -10 0 -15 11 -15 35 0 24 5 35 15 35 8 0 15 -7 15 -15z
m-787 -2 c-35 -2 -91 -2 -125 0 -35 2 -7 3 62 3 69 0 97 -1 63 -3z m40 -20
c-23 -2 -64 -2 -90 0 -26 2 -7 3 42 3 50 0 71 -1 48 -3z m-470 -10 c-7 -2 -21
-2 -30 0 -10 3 -4 5 12 5 17 0 24 -2 18 -5z m1487 -3 c0 -5 -20 -10 -45 -10
-25 0 -45 5 -45 10 0 6 20 10 45 10 25 0 45 -4 45 -10z m85 0 c-3 -5 -19 -10
-35 -10 -16 0 -32 5 -35 10 -4 6 10 10 35 10 25 0 39 -4 35 -10z m-2227 -7
c-10 -2 -28 -2 -40 0 -13 2 -5 4 17 4 22 1 32 -1 23 -4z m100 0 c-16 -2 -40
-2 -55 0 -16 2 -3 4 27 4 30 0 43 -2 28 -4z m1144 0 c-15 -3 -22 -10 -18 -18
6 -16 -40 -11 -61 7 -12 10 -17 4 -14 -14 0 -5 -44 -8 -98 -8 -62 0 -102 -4
-107 -11 -8 -14 -24 8 -24 34 0 16 14 17 173 16 94 -1 162 -4 149 -6z m403 -3
c4 -6 -10 -10 -35 -10 -25 0 -39 4 -35 10 3 6 19 10 35 10 16 0 32 -4 35 -10z
m-1787 -27 c-4 -21 -27 -27 -48 -13 -13 9 -13 11 0 20 25 16 52 12 48 -7z
m1412 3 c0 -11 -19 -15 -25 -6 -3 5 1 10 9 10 9 0 16 -2 16 -4z m596 -23 c-4
-16 -7 -38 -7 -50 1 -15 -5 -23 -15 -23 -12 0 -15 6 -10 23 3 12 6 34 6 50 0
18 5 27 16 27 13 0 15 -6 10 -27z m-1823 10 c-7 -2 -19 -2 -25 0 -7 3 -2 5 12
5 14 0 19 -2 13 -5z m50 0 c-7 -2 -19 -2 -25 0 -7 3 -2 5 12 5 14 0 19 -2 13
-5z m707 -8 c0 -8 -7 -15 -15 -15 -8 0 -15 7 -15 15 0 8 7 15 15 15 8 0 15 -7
15 -15z m329 -13 c16 -3 22 -1 17 7 -4 6 -1 11 8 11 8 0 18 -5 22 -11 3 -6 15
-9 25 -6 11 3 19 1 19 -4 0 -5 -60 -9 -132 -10 -82 -1 -123 -4 -108 -9 24 -8
23 -8 -7 -9 -18 -1 -33 3 -33 8 0 6 -21 12 -47 14 -33 2 -22 4 37 6 47 2 99 7
115 11 17 4 37 5 45 3 8 -3 26 -8 39 -11z m907 -1 c-18 -7 -66 -3 -66 5 0 2
19 4 43 3 30 0 36 -3 23 -8z m-386 -14 c-43 -16 -152 -16 -157 -1 -3 8 27 12
94 12 91 1 95 1 63 -11z m-854 -19 c-3 -13 -6 -26 -6 -30 0 -5 -6 -8 -14 -8
-8 0 -13 11 -12 30 1 22 6 30 20 30 14 0 17 -5 12 -22z m-240 4 c-8 -13 -156
-14 -156 -2 0 6 33 10 81 10 44 0 78 -4 75 -8z m121 -18 c-9 -9 -28 6 -21 18
4 6 10 6 17 -1 6 -6 8 -13 4 -17z m410 20 c-3 -3 -12 -4 -19 -1 -8 3 -5 6 6 6
11 1 17 -2 13 -5z m46 -1 c-7 -2 -19 -2 -25 0 -7 3 -2 5 12 5 14 0 19 -2 13
-5z m270 0 c-7 -2 -21 -2 -30 0 -10 3 -4 5 12 5 17 0 24 -2 18 -5z m925 -28
l0 -35 -64 0 c-48 0 -66 -4 -70 -15 -5 -12 -22 -15 -78 -13 -70 1 -70 1 -21 8
44 6 40 7 -37 8 -71 2 -88 5 -88 17 0 11 -12 15 -42 17 -43 1 -43 1 -7 5 26 3
38 10 42 24 5 18 15 19 185 19 l180 0 0 -35z m-1415 8 c-7 -2 -21 -2 -30 0
-10 3 -4 5 12 5 17 0 24 -2 18 -5z m175 0 c-43 -2 -78 -8 -78 -13 0 -6 -13
-10 -30 -10 -20 0 -30 5 -30 15 0 13 18 15 108 13 94 -2 98 -2 30 -5z m-578
-23 c0 -5 -6 -10 -14 -10 -8 0 -17 -6 -20 -12 -4 -9 -8 -9 -11 -2 -3 6 -19 8
-35 6 -23 -3 -30 0 -30 12 0 13 11 16 55 16 30 0 55 -4 55 -10z m116 -2 c3 -4
-20 -8 -50 -8 -31 0 -56 5 -56 10 0 12 99 10 106 -2z m568 -8 c61 0 61 0 63
-30 2 -34 8 -32 -107 -32 -41 0 -58 -2 -37 -5 47 -5 49 -24 2 -21 -19 1 -37
-1 -41 -5 -4 -4 -1 -7 7 -7 8 0 1 -9 -15 -20 l-30 -19 70 -4 c61 -3 58 -3 -26
-5 -71 -1 -90 1 -77 9 14 8 16 14 6 25 -10 12 -9 13 4 9 8 -4 18 -2 22 4 3 7
-2 11 -14 11 -11 0 -25 8 -30 18 -6 9 -11 11 -11 5 0 -10 -21 -13 -77 -11
l-78 1 65 7 c36 4 53 7 39 8 -15 1 -29 9 -33 17 -4 12 3 15 37 15 30 0 38 3
27 10 -13 8 -13 10 0 14 38 13 59 15 114 10 32 -2 86 -4 120 -4z m606 -3 c0
-19 -20 -36 -36 -30 -8 3 -14 0 -14 -6 0 -6 -5 -11 -11 -11 -5 0 -8 4 -5 9 3
5 -39 9 -94 10 -75 1 -102 -2 -105 -11 -6 -16 -42 -21 -50 -7 -4 5 -17 9 -31
9 -19 0 -24 5 -24 25 l0 25 185 0 c145 0 185 -3 185 -13z m70 -17 c0 -20 -5
-30 -15 -30 -10 0 -15 10 -15 30 0 20 5 30 15 30 10 0 15 -10 15 -30z m-2012
13 c-10 -2 -26 -2 -35 0 -10 3 -2 5 17 5 19 0 27 -2 18 -5z m942 -8 c0 -8 -8
-15 -18 -15 -10 0 -19 7 -19 15 0 8 9 15 19 15 10 0 18 -7 18 -15z m536 -7
c-3 -13 -6 -35 -6 -50 0 -18 -5 -28 -15 -28 -11 0 -14 12 -14 50 1 43 4 50 21
50 16 0 19 -5 14 -22z m-606 -3 c0 -17 -21 -20 -35 -6 -6 5 -19 11 -30 14 -11
3 -1 5 23 6 31 1 42 -3 42 -14z m1298 -12 c-10 -2 -26 -2 -35 0 -10 3 -2 5 17
5 19 0 27 -2 18 -5z m-1231 -35 c3 -20 -1 -28 -12 -28 -8 0 -15 3 -15 8 0 4
-3 18 -7 31 -5 18 -2 22 12 20 11 -3 20 -15 22 -31z m1382 -4 c2 -2 -35 -4
-84 -4 -97 0 -113 8 -22 11 31 1 57 6 57 11 0 7 35 -6 49 -18z m134 19 c-7 -2
-19 -2 -25 0 -7 3 -2 5 12 5 14 0 19 -2 13 -5z m-2472 -12 c-8 -5 -20 -7 -28
-4 -21 8 -15 13 15 13 20 0 23 -3 13 -9z m672 2 c-7 -2 -19 -2 -25 0 -7 3 -2
5 12 5 14 0 19 -2 13 -5z m75 0 c-10 -2 -28 -2 -40 0 -13 2 -5 4 17 4 22 1 32
-1 23 -4z m1189 -40 c-3 -10 -5 -2 -5 17 0 19 2 27 5 18 2 -10 2 -26 0 -35z
m83 32 c0 -8 -6 -15 -14 -15 -8 0 -16 7 -20 15 -4 10 1 15 14 15 11 0 20 -7
20 -15z m-610 -5 c0 -5 -2 -10 -4 -10 -3 0 -8 5 -11 10 -3 6 -1 10 4 10 6 0
11 -4 11 -10z m310 0 c0 -6 -29 -10 -66 -10 -41 0 -63 4 -59 10 3 6 33 10 66
10 33 0 59 -4 59 -10z m130 0 c0 -6 -27 -10 -60 -10 -33 0 -60 4 -60 8 0 5 27
9 60 10 33 1 60 -3 60 -8z m570 0 c0 -5 13 -7 30 -3 25 4 30 2 29 -13 0 -11
-4 -28 -9 -39 -8 -18 -9 -18 -9 -2 -1 17 -9 18 -108 13 -60 -2 -109 -5 -110
-5 -2 -1 -3 -8 -3 -16 0 -12 20 -15 120 -15 112 0 120 -1 120 -20 0 -18 -9
-19 -164 -22 -90 -2 -171 -2 -180 0 -24 5 -21 42 4 42 13 0 18 5 14 15 -4 8
-12 15 -19 15 -7 0 -15 9 -18 20 -5 19 0 20 139 20 89 0 144 4 144 10 0 6 5
10 10 10 6 0 10 -4 10 -10z m-1522 -17 c-3 -14 -13 -16 -63 -14 -33 1 -61 7
-63 12 -2 5 -47 9 -99 9 -77 0 -94 -3 -90 -14 4 -11 -13 -13 -91 -12 -84 1
-97 3 -100 19 -3 16 14 17 253 17 236 0 256 -1 253 -17z m-539 2 c-3 -2 -94
-5 -202 -5 -163 -1 -197 -4 -197 -16 0 -17 -95 -20 -105 -4 -16 26 15 30 257
30 138 0 249 -2 247 -5z m371 -21 c0 -2 -21 -4 -46 -4 -25 0 -43 4 -40 8 4 7
86 4 86 -4z m637 10 c-3 -3 -12 -4 -19 -1 -8 3 -5 6 6 6 11 1 17 -2 13 -5z
m653 -9 c0 -8 -7 -15 -15 -15 -8 0 -15 7 -15 15 0 8 7 15 15 15 8 0 15 -7 15
-15z m-1053 -10 c0 -8 -9 -15 -19 -15 -10 0 -18 7 -18 15 0 8 8 15 18 15 10 0
19 -7 19 -15z m525 -15 c5 -34 2 -41 -18 -33 -8 3 -14 18 -14 34 0 39 26 38
32 -1z m-1388 5 c-7 -17 -66 -20 -99 -5 -14 6 -7 7 21 3 23 -3 50 0 60 6 24
14 24 14 18 -4z m51 -5 c3 -5 1 -10 -4 -10 -6 0 -11 5 -11 10 0 6 2 10 4 10 3
0 8 -4 11 -10z m430 0 c-17 -7 -17 -9 -2 -9 9 -1 17 -8 17 -16 0 -16 35 -20
67 -8 14 6 11 9 -17 14 -19 4 27 7 103 8 127 1 137 0 137 -18 0 -14 -8 -18
-32 -18 -85 0 -189 -7 -155 -10 70 -8 27 -23 -64 -23 -91 0 -123 16 -46 23 23
2 -1 3 -53 2 -52 -2 -83 -1 -67 2 18 3 27 10 27 24 0 15 7 19 33 20 27 0 29 2
12 9 -16 7 -11 9 20 9 31 0 36 -2 20 -9z m62 4 c-3 -3 -12 -4 -19 -1 -8 3 -5
6 6 6 11 1 17 -2 13 -5z m206 -1 c-7 -2 -19 -2 -25 0 -7 3 -2 5 12 5 14 0 19
-2 13 -5z m-610 -10 c-7 -2 -19 -2 -25 0 -7 3 -2 5 12 5 14 0 19 -2 13 -5z
m1453 -8 c-38 -20 -106 -20 -106 0 0 12 14 15 68 15 66 0 66 0 38 -15z m191 1
c0 -12 -5 -13 -21 -4 -31 16 -32 18 -4 18 15 0 25 -6 25 -14z m56 0 c4 -10 0
-14 -12 -13 -10 0 -18 7 -18 14 0 18 23 17 30 -1z m-980 -11 c-6 -17 -25 -15
-31 3 -2 7 5 12 17 12 14 0 19 -5 14 -15z m-947 -10 c19 -8 42 -12 52 -9 14 5
15 4 2 -5 -14 -10 -90 -16 -90 -7 0 2 -3 11 -6 20 -8 20 -3 20 42 1z m344 0
c0 -19 -21 -30 -30 -15 -5 9 -9 9 -14 1 -11 -17 -111 -14 -126 3 -6 8 -30 17
-53 18 -23 2 18 5 91 5 107 2 132 -1 132 -12z m912 8 c-40 -2 -103 -2 -140 0
-37 2 -4 3 73 3 77 0 107 -2 67 -3z m748 -18 c0 -8 -7 -15 -15 -15 -8 0 -15 7
-15 15 0 8 7 15 15 15 8 0 15 -7 15 -15z m-592 -12 c-3 -16 -18 -18 -127 -21
-95 -2 -127 -6 -135 -17 -12 -16 -60 -10 -50 6 3 5 -8 9 -24 9 -21 0 -31 6
-35 20 -5 19 0 20 185 20 175 0 189 -1 186 -17z m-464 -15 c9 -34 8 -38 -9
-38 -8 0 -15 6 -15 14 0 8 -3 21 -6 30 -4 10 -1 16 9 16 8 0 17 -10 21 -22z
m724 15 c-10 -2 -26 -2 -35 0 -10 3 -2 5 17 5 19 0 27 -2 18 -5z m251 -24 c-8
-5 -26 -6 -41 -3 -15 3 -35 1 -45 -4 -21 -11 -93 -4 -93 9 0 8 167 18 184 10
4 -2 2 -7 -5 -12z m-449 -4 c0 -8 -7 -15 -15 -15 -26 0 -18 20 13 29 1 1 2 -6
2 -14z m228 8 c-10 -2 -26 -2 -35 0 -10 3 -2 5 17 5 19 0 27 -2 18 -5z m302
-3 c0 -5 -4 -10 -10 -10 -5 0 -10 5 -10 10 0 6 5 10 10 10 6 0 10 -4 10 -10z
m-2033 -40 c-3 -11 -2 -18 3 -15 10 6 23 -42 15 -55 -9 -15 -78 -11 -99 5 -19
14 -18 15 15 16 21 1 27 3 14 6 -26 7 -63 33 -47 33 18 0 14 18 -5 23 -10 3
11 5 46 6 59 1 63 0 58 -19z m2031 2 c2 -7 -3 -12 -12 -12 -9 0 -16 7 -16 16
0 17 22 14 28 -4z m-1971 2 c-3 -3 -12 -4 -19 -1 -8 3 -5 6 6 6 11 1 17 -2 13
-5z m76 -1 c-7 -2 -21 -2 -30 0 -10 3 -4 5 12 5 17 0 24 -2 18 -5z m1261 -9
c4 -9 13 -14 21 -10 11 4 15 -2 15 -24 l0 -30 -87 -1 c-60 -1 -80 -4 -63 -9
25 -8 24 -8 -5 -9 -51 -2 -10 -17 53 -20 113 -5 62 -11 -88 -11 -160 0 -192 7
-75 15 80 6 98 14 34 16 l-44 2 35 7 c27 6 18 8 -40 8 -50 0 -68 -2 -55 -8 19
-8 19 -9 -2 -9 -19 -1 -23 4 -23 29 0 28 3 30 38 31 29 0 33 2 17 9 -21 8 -21
8 50 23 11 3 63 5 116 6 80 1 98 -2 103 -15z m114 4 c-3 -7 -11 -13 -18 -13
-7 0 -15 6 -17 13 -3 7 4 12 17 12 13 0 20 -5 18 -12z m-528 -13 c0 -8 -7 -15
-15 -15 -8 0 -15 7 -15 15 0 8 7 15 15 15 8 0 15 -7 15 -15z m1040 -15 c0 -5
-6 -10 -12 -11 -10 0 -10 -2 0 -6 17 -7 15 -33 -3 -33 -10 0 -15 10 -15 30 0
20 5 30 15 30 8 0 15 -4 15 -10z m-520 -30 c0 -19 -5 -30 -14 -30 -21 0 -29
30 -8 31 10 0 12 3 5 6 -18 7 -16 23 2 23 10 0 15 -10 15 -30z m220 18 c0 -4
21 -8 47 -8 25 0 43 -3 40 -6 -10 -11 -81 -12 -99 -3 -10 6 -19 5 -23 -1 -3
-6 -17 -7 -31 -4 -14 4 -24 2 -24 -5 0 -6 -7 -11 -15 -11 -8 0 -15 6 -15 14 0
9 18 17 48 23 60 11 72 12 72 1z m103 5 c-13 -2 -35 -2 -50 0 -16 2 -5 4 22 4
28 0 40 -2 28 -4z m-1505 -10 c-15 -2 -42 -2 -60 0 -18 2 -6 4 27 4 33 0 48
-2 33 -4z m652 -15 c0 -13 3 -33 6 -45 5 -17 2 -23 -11 -23 -12 0 -16 6 -12
20 3 11 1 18 -4 14 -5 -3 -9 2 -9 10 0 9 6 16 13 17 10 0 10 2 0 6 -18 7 -16
23 2 23 9 0 15 -9 15 -22z m1440 7 c-10 -12 -9 -16 4 -21 9 -3 26 -4 37 -1 18
5 39 -16 27 -28 -2 -3 -81 -7 -175 -11 -168 -7 -170 -6 -176 15 -5 20 -2 21
65 21 39 0 67 4 64 9 -3 5 -15 7 -26 4 -14 -4 -20 0 -20 11 0 14 15 16 106 16
93 0 105 -2 94 -15z m47 9 c-3 -3 -12 -4 -19 -1 -8 3 -5 6 6 6 11 1 17 -2 13
-5z m-2620 -24 c-3 -11 -1 -18 3 -15 5 3 11 1 14 -3 3 -5 -19 -9 -49 -9 -30 1
-55 5 -55 10 0 5 12 7 28 3 15 -3 21 -3 15 0 -26 11 -13 34 18 34 26 0 31 -3
26 -20z m2310 14 c-3 -3 -12 -4 -19 -1 -8 3 -5 6 6 6 11 1 17 -2 13 -5z
m-1447 -36 c0 -4 -6 -8 -14 -8 -8 0 -17 4 -20 8 -2 4 4 8 15 8 10 0 19 -4 19
-8z m167 6 c-3 -3 -12 -4 -19 -1 -8 3 -5 6 6 6 11 1 17 -2 13 -5z m180 0 c-3
-3 -12 -4 -19 -1 -8 3 -5 6 6 6 11 1 17 -2 13 -5z m983 -19 c0 -8 -4 -15 -9
-15 -4 0 -7 -13 -5 -30 4 -30 -17 -43 -31 -20 -3 6 -2 10 3 10 6 0 10 6 9 13
-1 38 5 57 18 57 8 0 15 -7 15 -15z m-1120 -24 c0 -14 3 -36 6 -48 5 -17 2
-23 -11 -23 -12 0 -15 -5 -10 -19 5 -16 1 -19 -30 -18 -19 1 -35 4 -35 7 0 4
-17 6 -37 5 -49 -3 -67 8 -28 16 29 6 29 7 -7 8 -42 1 -54 -1 -51 -10 1 -3 -5
-6 -13 -6 -7 0 -14 6 -14 14 0 9 -14 13 -45 13 -25 0 -45 -4 -45 -10 0 -5 19
-10 42 -10 70 0 33 -13 -42 -14 -62 -2 -90 6 -60 16 7 2 6 20 -4 50 l-14 47
32 3 c17 2 106 3 199 4 l167 0 0 -25z m600 19 c0 -5 -3 -10 -7 -10 -5 0 -8
-11 -8 -25 0 -14 4 -25 10 -25 5 0 4 -5 -2 -11 -19 -19 -33 0 -31 42 1 31 5
39 20 39 10 0 18 -4 18 -10z m-197 -27 c-42 -3 -53 -8 -53 -21 0 -10 3 -13 8
-7 4 7 39 9 90 7 l82 -4 0 -29 c0 -16 -6 -31 -12 -34 -20 -6 -321 -13 -335 -8
-7 3 -13 18 -13 34 0 27 3 29 38 31 l37 1 -45 7 -45 7 55 2 c40 1 51 4 40 11
-10 7 21 9 95 8 61 -1 86 -3 58 -5z m1040 0 c-7 -2 -19 -2 -25 0 -7 3 -2 5 12
5 14 0 19 -2 13 -5z m-1373 -33 c0 -20 -5 -30 -15 -30 -8 0 -15 5 -15 10 0 6
5 10 12 10 9 0 9 3 0 12 -16 16 -15 28 3 28 10 0 15 -10 15 -30z m-590 5 c0
-12 -14 -15 -65 -15 -36 0 -65 4 -65 8 0 5 -47 9 -105 10 -61 1 -105 -3 -105
-8 0 -16 -27 -11 -34 5 -5 13 20 15 184 15 162 0 190 -2 190 -15z m667 9 c-3
-3 -12 -4 -19 -1 -8 3 -5 6 6 6 11 1 17 -2 13 -5z m1134 -8 c-17 -21 -63 -30
-72 -15 -13 21 0 29 43 29 34 0 38 -2 29 -14z m131 7 c-6 -2 -10 -9 -6 -14 3
-5 -15 -9 -39 -9 -32 0 -44 4 -44 15 0 11 12 15 51 14 28 0 45 -3 38 -6z m78
3 c0 -2 -7 -6 -15 -10 -8 -3 -15 -1 -15 4 0 6 7 10 15 10 8 0 15 -2 15 -4z
m-500 -50 c0 -8 -11 -13 -27 -13 -16 -1 -83 -3 -150 -6 -101 -5 -123 -4 -123
8 0 7 -10 16 -22 18 -13 2 55 5 150 6 139 1 172 -2 172 -13z m110 -6 c0 -5 -4
-10 -9 -10 -6 0 -13 5 -16 10 -3 6 1 10 9 10 9 0 16 -4 16 -10z m203 3 c-13
-2 -33 -2 -45 0 -13 2 -3 4 22 4 25 0 35 -2 23 -4z m54 1 c-3 -3 -12 -4 -19
-1 -8 3 -5 6 6 6 11 1 17 -2 13 -5z m-1287 -20 c0 -9 -5 -14 -12 -12 -18 6
-21 28 -4 28 9 0 16 -7 16 -16z m78 -1 c-10 -2 -28 -2 -40 0 -13 2 -5 4 17 4
22 1 32 -1 23 -4z"/>
<path d="M2115 2369 l-60 -6 55 -1 c30 -1 72 -5 93 -8 28 -5 37 -3 37 8 0 15
-27 17 -125 7z"/>
<path d="M1766 2331 c-12 -19 2 -29 41 -29 53 -1 73 6 66 24 -6 17 -33 19 -33
2 0 -9 -4 -8 -10 2 -9 13 -10 13 -10 0 0 -12 -2 -13 -9 -1 -7 11 -9 11 -14 0
-5 -12 -7 -12 -15 0 -7 9 -12 10 -16 2z"/>
<path d="M1475 2281 l-40 -6 55 -8 c98 -12 140 -9 140 11 0 14 -2 15 -10 2 -8
-12 -13 -13 -30 -2 -21 13 -48 13 -115 3z"/>
<path d="M1798 2253 c6 -2 18 -2 25 0 6 3 1 5 -13 5 -14 0 -19 -2 -12 -5z"/>
<path d="M768 2203 c17 -2 47 -2 65 0 17 2 3 4 -33 4 -36 0 -50 -2 -32 -4z"/>
<path d="M1468 2113 c7 -3 16 -2 19 1 4 3 -2 6 -13 5 -11 0 -14 -3 -6 -6z"/>
<path d="M1898 2073 c7 -3 16 -2 19 1 4 3 -2 6 -13 5 -11 0 -14 -3 -6 -6z"/>
<path d="M1948 2073 c7 -3 16 -2 19 1 4 3 -2 6 -13 5 -11 0 -14 -3 -6 -6z"/>
<path d="M1766 2023 c-4 -10 18 -13 109 -13 104 0 114 2 108 17 -4 11 -8 12
-11 5 -5 -15 -102 -16 -102 -2 0 16 -98 9 -104 -7z"/>
<path d="M900 2113 c0 -10 4 -14 8 -8 4 6 11 13 16 18 5 4 2 7 -7 7 -10 0 -17
-8 -17 -17z"/>
<path d="M921 2006 c7 -8 98 -10 105 -3 4 4 -19 7 -51 7 -32 0 -56 -2 -54 -4z"/>
<path d="M746 1958 c-6 -23 -7 -23 -21 -4 -13 17 -15 18 -15 3 0 -14 -10 -17
-55 -17 -48 0 -55 -2 -55 -20 0 -19 7 -20 219 -20 261 0 311 5 311 31 0 16 -8
19 -47 19 -35 0 -44 3 -33 10 11 7 -4 10 -50 10 -46 0 -61 -3 -50 -10 11 -8 8
-10 -15 -8 -16 1 -39 -2 -51 -5 -11 -4 -28 -1 -39 7 -19 14 -55 11 -55 -5 0
-5 -4 -9 -10 -9 -5 0 -9 3 -9 8 6 35 -15 44 -25 10z m277 -5 c-7 -2 -19 -2
-25 0 -7 3 -2 5 12 5 14 0 19 -2 13 -5z m-123 -19 c82 -2 90 -3 90 -14 0 -12
-178 -11 -186 1 -3 5 0 9 6 9 6 0 8 5 4 12 -5 8 -2 9 12 3 10 -5 44 -10 74
-11z"/>
<path d="M886 1882 c-3 -5 1 -9 9 -9 8 0 12 4 9 9 -3 4 -7 8 -9 8 -2 0 -6 -4
-9 -8z"/>
<path d="M838 1863 c6 -2 18 -2 25 0 6 3 1 5 -13 5 -14 0 -19 -2 -12 -5z"/>
<path d="M1160 1987 c0 -10 8 -17 18 -17 9 0 13 4 7 8 -5 4 -13 11 -17 16 -5
5 -8 2 -8 -7z"/>
<path d="M1200 1983 c0 -10 46 -13 236 -13 178 0 235 3 232 12 -6 18 -468 20
-468 1z"/>
<path d="M1638 1923 c7 -3 16 -2 19 1 4 3 -2 6 -13 5 -11 0 -14 -3 -6 -6z"/>
<path d="M1418 1913 c7 -3 16 -2 19 1 4 3 -2 6 -13 5 -11 0 -14 -3 -6 -6z"/>
<path d="M2553 1973 c9 -2 23 -2 30 0 6 3 -1 5 -18 5 -16 0 -22 -2 -12 -5z"/>
<path d="M2490 1870 c-9 -6 -10 -10 -3 -10 6 0 15 5 18 10 8 12 4 12 -15 0z"/>
<path d="M1217 1663 c-17 -16 -3 -23 48 -23 42 0 55 3 55 15 0 11 -12 15 -48
15 -27 0 -52 -3 -55 -7z"/>
<path d="M1370 1659 c0 -5 49 -9 112 -9 61 0 109 3 106 6 -10 10 -218 13 -218
3z"/>
<path d="M1609 1659 c-10 -6 -7 -9 14 -9 29 0 35 5 14 13 -8 3 -20 1 -28 -4z"/>
<path d="M1210 1615 c0 -12 13 -15 55 -15 44 0 53 3 49 15 -4 11 -21 15 -55
15 -37 0 -49 -4 -49 -15z"/>
<path d="M1365 1620 c6 -10 92 -6 103 4 3 3 -20 6 -52 6 -34 0 -55 -4 -51 -10z"/>
<path d="M1513 1623 c9 -2 25 -2 35 0 9 3 1 5 -18 5 -19 0 -27 -2 -17 -5z"/>
<path d="M1210 1575 c0 -12 13 -15 55 -15 42 0 55 3 55 15 0 12 -13 15 -55 15
-42 0 -55 -3 -55 -15z"/>
<path d="M1365 1580 c-4 -6 8 -10 29 -10 20 0 36 5 36 10 0 6 -13 10 -29 10
-17 0 -33 -4 -36 -10z"/>
<path d="M1460 1580 c0 -5 9 -10 20 -10 11 0 20 5 20 10 0 6 -9 10 -20 10 -11
0 -20 -4 -20 -10z"/>
<path d="M1520 1581 c0 -10 84 -20 113 -13 36 9 15 18 -48 20 -36 2 -65 -2
-65 -7z"/>
<path d="M1229 1538 c-1 -7 0 -19 1 -27 1 -8 -4 -18 -12 -22 -8 -5 12 -9 50
-9 47 0 62 3 62 14 0 11 -14 16 -47 19 l-48 3 48 2 c34 2 47 6 47 17 0 19 -99
22 -101 3z"/>
<path d="M1380 1540 c0 -13 20 -13 40 0 12 8 9 10 -12 10 -16 0 -28 -4 -28
-10z"/>
<path d="M1480 1539 c0 -5 9 -9 20 -9 11 0 20 4 20 8 0 4 -9 8 -20 9 -11 1
-20 -2 -20 -8z"/>
<path d="M1536 1542 c-3 -5 1 -9 9 -9 8 0 12 4 9 9 -3 4 -7 8 -9 8 -2 0 -6 -4
-9 -8z"/>
<path d="M1388 1503 c6 -2 18 -2 25 0 6 3 1 5 -13 5 -14 0 -19 -2 -12 -5z"/>
<path d="M1453 1503 c15 -2 37 -2 50 0 12 2 0 4 -28 4 -27 0 -38 -2 -22 -4z"/>
<path d="M1548 1503 c6 -2 18 -2 25 0 6 3 1 5 -13 5 -14 0 -19 -2 -12 -5z"/>
<path d="M790 1478 c0 -4 14 -8 30 -8 17 0 30 4 30 9 0 5 -13 9 -30 9 -16 -1
-30 -5 -30 -10z"/>
<path d="M860 1480 c0 -7 21 -8 58 -4 77 8 79 14 4 14 -35 0 -62 -4 -62 -10z"/>
<path d="M1013 1483 c9 -2 25 -2 35 0 9 3 1 5 -18 5 -19 0 -27 -2 -17 -5z"/>
<path d="M1570 1379 c0 -5 5 -7 10 -4 6 3 10 8 10 11 0 2 -4 4 -10 4 -5 0 -10
-5 -10 -11z"/>
<path d="M1628 1383 c7 -3 16 -2 19 1 4 3 -2 6 -13 5 -11 0 -14 -3 -6 -6z"/>
<path d="M1918 1343 c7 -3 16 -2 19 1 4 3 -2 6 -13 5 -11 0 -14 -3 -6 -6z"/>
<path d="M1410 1271 c0 -11 -1 -11 148 -17 97 -5 112 -3 112 10 0 14 -19 16
-130 16 -74 0 -130 -4 -130 -9z"/>
<path d="M1380 1151 c0 -6 37 -9 84 -8 47 1 82 5 80 9 -7 11 -164 10 -164 -1z"/>
<path d="M863 1063 c9 -2 23 -2 30 0 6 3 -1 5 -18 5 -16 0 -22 -2 -12 -5z"/>
<path d="M928 1063 c7 -3 16 -2 19 1 4 3 -2 6 -13 5 -11 0 -14 -3 -6 -6z"/>
<path d="M2000 1100 c8 -5 20 -10 25 -10 6 0 3 5 -5 10 -8 5 -19 10 -25 10 -5
0 -3 -5 5 -10z"/>
<path d="M1440 1040 c-13 -8 -12 -10 3 -10 9 0 17 5 17 10 0 12 -1 12 -20 0z"/>
<path d="M1608 1043 c7 -3 16 -2 19 1 4 3 -2 6 -13 5 -11 0 -14 -3 -6 -6z"/>
<path d="M1492 895 c9 -10 88 -13 88 -4 0 5 -21 9 -47 9 -25 0 -44 -2 -41 -5z"/>
<path d="M1600 890 c0 -5 12 -10 28 -10 21 0 24 2 12 10 -20 13 -40 13 -40 0z"/>
<path d="M2103 898 c-2 -5 10 -8 26 -8 17 0 31 3 31 8 0 4 -12 7 -26 7 -14 0
-28 -3 -31 -7z"/>
<path d="M1923 893 c9 -2 25 -2 35 0 9 3 1 5 -18 5 -19 0 -27 -2 -17 -5z"/>
<path d="M2008 893 c18 -2 45 -2 60 0 15 2 0 4 -33 4 -33 0 -45 -2 -27 -4z"/>
<path d="M1013 743 c15 -2 39 -2 55 0 15 2 2 4 -28 4 -30 0 -43 -2 -27 -4z"/>
<path d="M218 633 c7 -3 16 -2 19 1 4 3 -2 6 -13 5 -11 0 -14 -3 -6 -6z"/>
<path d="M1505 640 c45 -11 123 -11 130 0 4 6 -24 10 -77 9 -59 -1 -75 -4 -53
-9z"/>
<path d="M2555 580 c-3 -5 -1 -10 4 -10 6 0 11 5 11 10 0 6 -2 10 -4 10 -3 0
-8 -4 -11 -10z"/>
<path d="M830 520 c0 -5 9 -10 20 -10 11 0 20 5 20 10 0 6 -9 10 -20 10 -11 0
-20 -4 -20 -10z"/>
<path d="M880 520 c0 -5 14 -10 30 -10 17 0 30 5 30 10 0 6 -13 10 -30 10 -16
0 -30 -4 -30 -10z"/>
<path d="M958 521 c13 -8 142 -5 150 4 3 3 -33 5 -79 5 -48 0 -78 -4 -71 -9z"/>
<path d="M833 483 c7 -7 149 -4 156 3 2 2 -33 4 -79 4 -46 0 -80 -3 -77 -7z"/>
<path d="M1013 483 c9 -2 23 -2 30 0 6 3 -1 5 -18 5 -16 0 -22 -2 -12 -5z"/>
<path d="M1078 483 c6 -2 18 -2 25 0 6 3 1 5 -13 5 -14 0 -19 -2 -12 -5z"/>
<path d="M1635 470 c-19 -8 -19 -9 3 -9 12 -1 22 4 22 9 0 6 -1 10 -2 9 -2 0
-12 -4 -23 -9z"/>
<path d="M1458 463 c7 -3 16 -2 19 1 4 3 -2 6 -13 5 -11 0 -14 -3 -6 -6z"/>
<path d="M1097 2664 c7 -3 9 -12 6 -20 -4 -11 10 -14 76 -14 45 0 81 -4 81 -8
0 -5 17 -8 38 -6 20 1 58 2 85 3 26 1 47 5 47 10 0 11 -21 12 -205 12 -38 0
-72 4 -75 9 -3 5 -19 11 -35 14 -17 3 -25 4 -18 0z"/>
<path d="M1450 2639 c0 -13 30 -18 52 -10 20 7 18 9 -15 13 -20 2 -37 1 -37
-3z"/>
<path d="M2357 2583 c18 -2 50 -2 70 0 21 2 7 4 -32 4 -38 0 -55 -2 -38 -4z"/>
<path d="M1658 2553 c7 -3 16 -2 19 1 4 3 -2 6 -13 5 -11 0 -14 -3 -6 -6z"/>
<path d="M1838 2533 c7 -3 16 -2 19 1 4 3 -2 6 -13 5 -11 0 -14 -3 -6 -6z"/>
<path d="M1450 2480 c0 -5 5 -10 11 -10 5 0 7 5 4 10 -3 6 -8 10 -11 10 -2 0
-4 -4 -4 -10z"/>
<path d="M2815 1130 c3 -5 8 -10 11 -10 2 0 4 5 4 10 0 6 -5 10 -11 10 -5 0
-7 -4 -4 -10z"/>
<path d="M2940 1108 c0 -7 -3 -23 -6 -35 -5 -17 -2 -23 10 -23 12 0 16 9 16
35 0 19 -4 35 -10 35 -5 0 -10 -6 -10 -12z"/>
<path d="M2810 1059 c0 -5 5 -7 10 -4 6 3 10 8 10 11 0 2 -4 4 -10 4 -5 0 -10
-5 -10 -11z"/>
<path d="M2930 1030 c0 -5 5 -10 10 -10 6 0 10 5 10 10 0 6 -4 10 -10 10 -5 0
-10 -4 -10 -10z"/>
<path d="M2800 1020 c0 -5 5 -10 10 -10 6 0 10 5 10 10 0 6 -4 10 -10 10 -5 0
-10 -4 -10 -10z"/>
<path d="M2927 1003 c-13 -12 -7 -33 10 -33 15 0 14 -2 -3 -15 -19 -14 -18
-14 4 -15 15 0 22 6 22 20 0 11 -7 20 -15 20 -21 0 -19 18 3 23 14 4 14 5 1 6
-9 0 -19 -2 -22 -6z"/>
<path d="M2910 865 c0 -31 3 -35 25 -35 22 0 25 4 25 35 0 31 -3 35 -25 35
-22 0 -25 -4 -25 -35z"/>
<path d="M2790 840 c0 -5 5 -10 10 -10 6 0 10 5 10 10 0 6 -4 10 -10 10 -5 0
-10 -4 -10 -10z"/>
<path d="M2790 799 c0 -5 5 -7 10 -4 6 3 10 8 10 11 0 2 -4 4 -10 4 -5 0 -10
-5 -10 -11z"/>
<path d="M2927 792 c-13 -3 -17 -11 -15 -30 2 -21 -2 -27 -22 -33 -14 -4 -18
-7 -9 -8 11 -1 19 -13 23 -34 5 -26 11 -33 31 -35 24 -2 25 0 25 68 0 72 -3
79 -33 72z"/>
<path d="M2902 628 c-7 -7 -12 -20 -12 -30 0 -14 8 -18 35 -18 36 0 42 10 29
44 -7 19 -35 21 -52 4z"/>
<path d="M2780 619 c0 -5 5 -7 10 -4 6 3 10 8 10 11 0 2 -4 4 -10 4 -5 0 -10
-5 -10 -11z"/>
<path d="M2918 563 c6 -2 18 -2 25 0 6 3 1 5 -13 5 -14 0 -19 -2 -12 -5z"/>
<path d="M2770 484 c0 -8 5 -12 10 -9 6 4 8 11 5 16 -9 14 -15 11 -15 -7z"/>
</g>
</svg>
